<svg version="1.1" viewBox="0.0 0.0 962.6509186351706 159.6482939632546" fill="none" stroke="none" stroke-linecap="square" stroke-miterlimit="10" xmlns:xlink="http://www.w3.org/1999/xlink" xmlns="http://www.w3.org/2000/svg"><clipPath id="p.0"><path d="m0 0l962.65094 0l0 159.6483l-962.65094 0l0 -159.6483z" clip-rule="nonzero"/></clipPath><g clip-path="url(#p.0)"><path fill="#000000" fill-opacity="0.0" d="m0 0l962.65094 0l0 159.6483l-962.65094 0z" fill-rule="evenodd"/><path fill="#ffffff" d="m2.03937 3.3963253l957.8898 0l0 153.19684l-957.8898 0z" fill-rule="evenodd"/><path fill="#ffffff" d="m6.9534845 7.9790025l153.88976 0l0 144.0l-153.88976 0z" fill-rule="evenodd"/><path stroke="#eb5600" stroke-width="2.6666666666666665" stroke-linejoin="round" stroke-linecap="butt" d="m6.9534845 7.9790025l153.88976 0l0 144.0l-153.88976 0z" fill-rule="evenodd"/><path fill="#eb5600" d="m43.596245 50.53213l-4.5 -6.625l3.171875 0q0.359375 0 0.53125 0.109375q0.1875 0.09375 0.3125 0.3125l2.875 4.578125q0.0625 -0.234375 0.15625 -0.453125q0.109375 -0.234375 0.25 -0.453125l2.3125 -3.609375q0.15625 -0.25 0.328125 -0.359375q0.171875 -0.125 0.421875 -0.125l3.03125 0l-4.5 6.46875l4.6875 7.203125l-3.171875 0q-0.359375 0 -0.578125 -0.1875q-0.21875 -0.1875 -0.375 -0.421875l-2.90625 -4.765625q-0.109375 0.484375 -0.328125 0.796875l-2.5625 3.96875q-0.140625 0.21875 -0.359375 0.421875q-0.21875 0.1875 -0.53125 0.1875l-2.953125 0l4.6875 -7.046875zm19.269318 -3.96875q-0.125 0.21875 -0.28125 0.3125q-0.140625 0.078125 -0.375 0.078125q-0.234375 0 -0.515625 -0.125q-0.265625 -0.140625 -0.625 -0.296875q-0.359375 -0.171875 -0.828125 -0.296875q-0.453125 -0.140625 -1.078125 -0.140625q-0.96875 0 -1.53125 0.421875q-0.5625 0.40625 -0.5625 1.0625q0 0.4375 0.28125 0.75q0.296875 0.296875 0.765625 0.53125q0.46875 0.21875 1.0625 0.40625q0.609375 0.171875 1.234375 0.390625q0.625 0.203125 1.21875 0.484375q0.609375 0.265625 1.078125 0.6875q0.484375 0.421875 0.765625 1.015625q0.28125 0.578125 0.28125 1.40625q0 0.984375 -0.359375 1.828125q-0.359375 0.828125 -1.0625 1.4375q-0.6875 0.59375 -1.703125 0.9375q-1.015625 0.34375 -2.34375 0.34375q-0.703125 0 -1.375 -0.140625q-0.671875 -0.125 -1.296875 -0.34375q-0.609375 -0.234375 -1.140625 -0.53125q-0.53125 -0.3125 -0.921875 -0.671875l0.75 -1.25q0.15625 -0.234375 0.34375 -0.34375q0.203125 -0.125 0.515625 -0.125q0.3125 0 0.578125 0.171875q0.28125 0.171875 0.640625 0.375q0.359375 0.203125 0.84375 0.375q0.484375 0.171875 1.234375 0.171875q0.578125 0 1.0 -0.140625q0.421875 -0.140625 0.6875 -0.359375q0.28125 -0.234375 0.40625 -0.53125q0.125 -0.296875 0.125 -0.625q0 -0.46875 -0.28125 -0.78125q-0.28125 -0.3125 -0.765625 -0.53125q-0.46875 -0.234375 -1.078125 -0.40625q-0.609375 -0.1875 -1.25 -0.390625q-0.625 -0.21875 -1.234375 -0.5q-0.59375 -0.296875 -1.078125 -0.734375q-0.46875 -0.4375 -0.765625 -1.078125q-0.28125 -0.640625 -0.28125 -1.546875q0 -0.84375 0.328125 -1.59375q0.34375 -0.765625 0.984375 -1.328125q0.65625 -0.5625 1.609375 -0.90625q0.96875 -0.34375 2.25 -0.34375q1.40625 0 2.5625 0.46875q1.15625 0.46875 1.9375 1.234375l-0.75 1.171875zm13.148743 0.234375q-0.15625 0.1875 -0.296875 0.296875q-0.140625 0.109375 -0.40625 0.109375q-0.25 0 -0.5 -0.15625q-0.234375 -0.15625 -0.5625 -0.34375q-0.328125 -0.203125 -0.796875 -0.34375q-0.453125 -0.15625 -1.140625 -0.15625q-0.859375 0 -1.515625 0.3125q-0.65625 0.3125 -1.09375 0.90625q-0.421875 0.578125 -0.640625 1.40625q-0.203125 0.828125 -0.203125 1.890625q0 1.09375 0.21875 1.953125q0.234375 0.84375 0.671875 1.421875q0.453125 0.578125 1.078125 0.875q0.625 0.296875 1.40625 0.296875q0.796875 0 1.28125 -0.1875q0.484375 -0.1875 0.8125 -0.421875q0.328125 -0.234375 0.578125 -0.421875q0.25 -0.203125 0.5625 -0.203125q0.390625 0 0.59375 0.3125l0.953125 1.1875q-0.546875 0.640625 -1.1875 1.078125q-0.640625 0.4375 -1.328125 0.703125q-0.6875 0.25 -1.421875 0.359375q-0.734375 0.109375 -1.453125 0.109375q-1.265625 0 -2.390625 -0.46875q-1.109375 -0.484375 -1.953125 -1.390625q-0.828125 -0.90625 -1.3125 -2.21875q-0.484375 -1.3125 -0.484375 -2.984375q0 -1.515625 0.421875 -2.796875q0.4375 -1.28125 1.28125 -2.21875q0.84375 -0.953125 2.078125 -1.484375q1.234375 -0.53125 2.859375 -0.53125q1.53125 0 2.671875 0.5q1.15625 0.484375 2.078125 1.40625l-0.859375 1.203125zm3.105606 10.78125l0 -19.8125l3.28125 0l0 7.625q0.796875 -0.765625 1.75 -1.234375q0.96875 -0.46875 2.265625 -0.46875q1.125 0 1.984375 0.390625q0.875 0.375 1.453125 1.0625q0.578125 0.6875 0.875 1.640625q0.296875 0.953125 0.296875 2.09375l0 8.703125l-3.296875 0l0 -8.703125q0 -1.25 -0.578125 -1.9375q-0.578125 -0.6875 -1.734375 -0.6875q-0.859375 0 -1.609375 0.390625q-0.734375 0.375 -1.40625 1.046875l0 9.890625l-3.28125 0zm20.794647 -13.890625q1.296875 0 2.375 0.421875q1.09375 0.40625 1.875 1.203125q0.796875 0.796875 1.234375 1.953125q0.4375 1.140625 0.4375 2.625q0 0.375 -0.03125 0.625q-0.03125 0.234375 -0.125 0.375q-0.078125 0.140625 -0.234375 0.203125q-0.140625 0.0625 -0.375 0.0625l-8.4375 0q0.140625 2.109375 1.125 3.09375q0.984375 0.984375 2.609375 0.984375q0.796875 0 1.375 -0.1875q0.59375 -0.1875 1.015625 -0.40625q0.4375 -0.234375 0.765625 -0.421875q0.328125 -0.1875 0.640625 -0.1875q0.1875 0 0.328125 0.078125q0.15625 0.078125 0.265625 0.234375l0.953125 1.1875q-0.546875 0.640625 -1.234375 1.078125q-0.671875 0.4375 -1.40625 0.703125q-0.734375 0.25 -1.5 0.359375q-0.765625 0.109375 -1.484375 0.109375q-1.4375 0 -2.671875 -0.46875q-1.21875 -0.484375 -2.125 -1.40625q-0.90625 -0.921875 -1.421875 -2.28125q-0.515625 -1.375 -0.515625 -3.171875q0 -1.40625 0.453125 -2.640625q0.453125 -1.234375 1.296875 -2.140625q0.84375 -0.921875 2.0625 -1.453125q1.21875 -0.53125 2.75 -0.53125zm0.078125 2.359375q-1.453125 0 -2.265625 0.8125q-0.8125 0.8125 -1.03125 2.3125l6.1875 0q0 -0.640625 -0.1875 -1.203125q-0.171875 -0.578125 -0.53125 -1.0q-0.359375 -0.421875 -0.90625 -0.671875q-0.546875 -0.25 -1.265625 -0.25zm8.528961 11.53125l0 -13.671875l2.0 0q0.640625 0 0.84375 0.59375l0.21875 1.015625q0.359375 -0.40625 0.75 -0.734375q0.390625 -0.328125 0.828125 -0.5625q0.453125 -0.25 0.96875 -0.390625q0.515625 -0.140625 1.125 -0.140625q1.296875 0 2.125 0.703125q0.84375 0.703125 1.25 1.859375q0.3125 -0.6875 0.796875 -1.171875q0.484375 -0.484375 1.046875 -0.78125q0.578125 -0.3125 1.21875 -0.453125q0.65625 -0.15625 1.3125 -0.15625q1.125 0 2.0 0.359375q0.890625 0.34375 1.484375 1.015625q0.609375 0.65625 0.921875 1.625q0.3125 0.953125 0.3125 2.1875l0 8.703125l-3.296875 0l0 -8.703125q0 -1.3125 -0.578125 -1.96875q-0.5625 -0.65625 -1.671875 -0.65625q-0.5 0 -0.9375 0.171875q-0.4375 0.171875 -0.765625 0.5q-0.328125 0.328125 -0.515625 0.828125q-0.1875 0.484375 -0.1875 1.125l0 8.703125l-3.296875 0l0 -8.703125q0 -1.375 -0.5625 -2.0q-0.546875 -0.625 -1.625 -0.625q-0.703125 0 -1.328125 0.359375q-0.625 0.34375 -1.15625 0.953125l0 10.015625l-3.28125 0z" fill-rule="nonzero"/><path fill="#1a9988" d="m34.643898 73.81338q-0.15625 0.296875 -0.359375 0.421875q-0.1875 0.109375 -0.453125 0.109375q-0.265625 0 -0.59375 -0.203125q-0.328125 -0.203125 -0.78125 -0.453125q-0.453125 -0.265625 -1.0625 -0.46875q-0.609375 -0.203125 -1.4375 -0.203125q-0.75 0 -1.296875 0.1875q-0.546875 0.171875 -0.9375 0.5q-0.375 0.3125 -0.5625 0.765625q-0.1875 0.4375 -0.1875 0.96875q0 0.671875 0.375 1.125q0.390625 0.453125 1.015625 0.78125q0.625 0.3125 1.421875 0.578125q0.796875 0.25 1.625 0.546875q0.84375 0.28125 1.640625 0.65625q0.796875 0.375 1.421875 0.953125q0.625 0.578125 1.0 1.421875q0.390625 0.84375 0.390625 2.046875q0 1.296875 -0.453125 2.4375q-0.4375 1.140625 -1.296875 1.984375q-0.859375 0.84375 -2.109375 1.34375q-1.234375 0.484375 -2.828125 0.484375q-0.921875 0 -1.8125 -0.1875q-0.890625 -0.171875 -1.71875 -0.5q-0.8125 -0.34375 -1.53125 -0.8125q-0.703125 -0.46875 -1.265625 -1.03125l1.03125 -1.71875q0.15625 -0.1875 0.359375 -0.3125q0.203125 -0.140625 0.453125 -0.140625q0.34375 0 0.71875 0.28125q0.390625 0.265625 0.90625 0.609375q0.53125 0.328125 1.25 0.609375q0.71875 0.265625 1.71875 0.265625q1.53125 0 2.359375 -0.71875q0.84375 -0.734375 0.84375 -2.09375q0 -0.765625 -0.375 -1.234375q-0.375 -0.484375 -1.015625 -0.8125q-0.625 -0.328125 -1.421875 -0.546875q-0.796875 -0.234375 -1.625 -0.5q-0.828125 -0.265625 -1.625 -0.640625q-0.796875 -0.375 -1.421875 -0.96875q-0.625 -0.59375 -1.015625 -1.5q-0.375 -0.90625 -0.375 -2.21875q0 -1.046875 0.421875 -2.046875q0.421875 -1.0 1.21875 -1.765625q0.8125 -0.78125 1.984375 -1.25q1.171875 -0.46875 2.6875 -0.46875q1.703125 0 3.140625 0.53125q1.4375 0.53125 2.453125 1.5l-0.875 1.6875zm13.394775 4.984375q-0.15625 0.1875 -0.296875 0.296875q-0.140625 0.109375 -0.40625 0.109375q-0.25 0 -0.5 -0.15625q-0.234375 -0.15625 -0.5625 -0.34375q-0.328125 -0.203125 -0.796875 -0.34375q-0.453125 -0.15625 -1.140625 -0.15625q-0.859375 0 -1.515625 0.3125q-0.65625 0.3125 -1.09375 0.90625q-0.421875 0.578125 -0.640625 1.40625q-0.203125 0.828125 -0.203125 1.890625q0 1.09375 0.21875 1.953125q0.234375 0.84375 0.671875 1.421875q0.453125 0.578125 1.078125 0.875q0.625 0.296875 1.40625 0.296875q0.796875 0 1.28125 -0.1875q0.484375 -0.1875 0.8125 -0.421875q0.328125 -0.234375 0.578125 -0.421875q0.25 -0.203125 0.5625 -0.203125q0.390625 0 0.59375 0.3125l0.953125 1.1875q-0.546875 0.640625 -1.1875 1.078125q-0.640625 0.4375 -1.328125 0.703125q-0.6875 0.25 -1.421875 0.359375q-0.734375 0.109375 -1.453125 0.109375q-1.265625 0 -2.390625 -0.46875q-1.109375 -0.484375 -1.953125 -1.390625q-0.828125 -0.90625 -1.3125 -2.21875q-0.484375 -1.3125 -0.484375 -2.984375q0 -1.515625 0.421875 -2.796875q0.4375 -1.28125 1.28125 -2.21875q0.84375 -0.953125 2.078125 -1.484375q1.234375 -0.53125 2.859375 -0.53125q1.53125 0 2.671875 0.5q1.15625 0.484375 2.078125 1.40625l-0.859375 1.203125zm3.105606 10.78125l0 -19.8125l3.28125 0l0 7.625q0.796875 -0.765625 1.75 -1.234375q0.96875 -0.46875 2.265625 -0.46875q1.125 0 1.984375 0.390625q0.875 0.375 1.453125 1.0625q0.578125 0.6875 0.875 1.640625q0.296875 0.953125 0.296875 2.09375l0 8.703125l-3.296875 0l0 -8.703125q0 -1.25 -0.578125 -1.9375q-0.578125 -0.6875 -1.734375 -0.6875q-0.859375 0 -1.609375 0.390625q-0.734375 0.375 -1.40625 1.046875l0 9.890625l-3.28125 0zm20.794647 -13.890625q1.296875 0 2.375 0.421875q1.09375 0.40625 1.875 1.203125q0.796875 0.796875 1.234375 1.953125q0.4375 1.140625 0.4375 2.625q0 0.375 -0.03125 0.625q-0.03125 0.234375 -0.125 0.375q-0.078125 0.140625 -0.234375 0.203125q-0.140625 0.0625 -0.375 0.0625l-8.4375 0q0.140625 2.109375 1.125 3.09375q0.984375 0.984375 2.609375 0.984375q0.796875 0 1.375 -0.1875q0.59375 -0.1875 1.015625 -0.40625q0.4375 -0.234375 0.765625 -0.421875q0.328125 -0.1875 0.640625 -0.1875q0.1875 0 0.328125 0.078125q0.15625 0.078125 0.265625 0.234375l0.953125 1.1875q-0.546875 0.640625 -1.234375 1.078125q-0.671875 0.4375 -1.40625 0.703125q-0.734375 0.25 -1.5 0.359375q-0.765625 0.109375 -1.484375 0.109375q-1.4375 0 -2.671875 -0.46875q-1.21875 -0.484375 -2.125 -1.40625q-0.90625 -0.921875 -1.421875 -2.28125q-0.515625 -1.375 -0.515625 -3.171875q0 -1.40625 0.453125 -2.640625q0.453125 -1.234375 1.296875 -2.140625q0.84375 -0.921875 2.0625 -1.453125q1.21875 -0.53125 2.75 -0.53125zm0.078125 2.359375q-1.453125 0 -2.265625 0.8125q-0.8125 0.8125 -1.03125 2.3125l6.1875 0q0 -0.640625 -0.1875 -1.203125q-0.171875 -0.578125 -0.53125 -1.0q-0.359375 -0.421875 -0.90625 -0.671875q-0.546875 -0.25 -1.265625 -0.25zm8.528961 11.53125l0 -13.671875l2.0 0q0.640625 0 0.84375 0.59375l0.21875 1.015625q0.359375 -0.40625 0.75 -0.734375q0.390625 -0.328125 0.828125 -0.5625q0.453125 -0.25 0.96875 -0.390625q0.515625 -0.140625 1.125 -0.140625q1.296875 0 2.125 0.703125q0.84375 0.703125 1.25 1.859375q0.3125 -0.6875 0.796875 -1.171875q0.484375 -0.484375 1.046875 -0.78125q0.578125 -0.3125 1.21875 -0.453125q0.65625 -0.15625 1.3125 -0.15625q1.125 0 2.0 0.359375q0.890625 0.34375 1.484375 1.015625q0.609375 0.65625 0.921875 1.625q0.3125 0.953125 0.3125 2.1875l0 8.703125l-3.296875 0l0 -8.703125q0 -1.3125 -0.578125 -1.96875q-0.5625 -0.65625 -1.671875 -0.65625q-0.5 0 -0.9375 0.171875q-0.4375 0.171875 -0.765625 0.5q-0.328125 0.328125 -0.515625 0.828125q-0.1875 0.484375 -0.1875 1.125l0 8.703125l-3.296875 0l0 -8.703125q0 -1.375 -0.5625 -2.0q-0.546875 -0.625 -1.625 -0.625q-0.703125 0 -1.328125 0.359375q-0.625 0.34375 -1.15625 0.953125l0 10.015625l-3.28125 0zm33.1476 0l-1.46875 0q-0.46875 0 -0.734375 -0.140625q-0.265625 -0.140625 -0.40625 -0.5625l-0.296875 -0.96875q-0.515625 0.453125 -1.015625 0.8125q-0.5 0.359375 -1.03125 0.59375q-0.53125 0.234375 -1.140625 0.359375q-0.59375 0.125 -1.328125 0.125q-0.859375 0 -1.59375 -0.234375q-0.734375 -0.234375 -1.265625 -0.703125q-0.515625 -0.46875 -0.8125 -1.15625q-0.296875 -0.703125 -0.296875 -1.609375q0 -0.78125 0.40625 -1.53125q0.40625 -0.75 1.34375 -1.359375q0.953125 -0.609375 2.53125 -1.0q1.578125 -0.40625 3.90625 -0.46875l0 -0.796875q0 -1.375 -0.578125 -2.03125q-0.578125 -0.65625 -1.6875 -0.65625q-0.796875 0 -1.34375 0.1875q-0.53125 0.1875 -0.921875 0.421875q-0.390625 0.234375 -0.734375 0.421875q-0.328125 0.1875 -0.71875 0.1875q-0.328125 0 -0.578125 -0.171875q-0.234375 -0.1875 -0.390625 -0.4375l-0.59375 -1.046875q2.359375 -2.15625 5.6875 -2.15625q1.203125 0 2.140625 0.390625q0.9375 0.390625 1.59375 1.09375q0.65625 0.703125 0.984375 1.671875q0.34375 0.96875 0.34375 2.125l0 8.640625zm-6.390625 -2.046875q0.5 0 0.921875 -0.09375q0.4375 -0.09375 0.8125 -0.28125q0.390625 -0.1875 0.734375 -0.453125q0.359375 -0.28125 0.71875 -0.65625l0 -2.3125q-1.4375 0.078125 -2.40625 0.265625q-0.96875 0.171875 -1.5625 0.453125q-0.578125 0.28125 -0.828125 0.65625q-0.25 0.359375 -0.25 0.796875q0 0.875 0.515625 1.25q0.515625 0.375 1.34375 0.375zm14.126373 2.265625q-1.765625 0 -2.734375 -1.0q-0.953125 -1.015625 -0.953125 -2.796875l0 -7.625l-1.390625 0q-0.265625 0 -0.46875 -0.171875q-0.1875 -0.1875 -0.1875 -0.53125l0 -1.296875l2.203125 -0.359375l0.6875 -3.734375q0.0625 -0.265625 0.25 -0.40625q0.203125 -0.15625 0.484375 -0.15625l1.703125 0l0 4.3125l3.609375 0l0 2.34375l-3.609375 0l0 7.40625q0 0.640625 0.3125 1.0q0.328125 0.359375 0.875 0.359375q0.296875 0 0.5 -0.0625q0.21875 -0.078125 0.359375 -0.15625q0.15625 -0.09375 0.28125 -0.15625q0.125 -0.078125 0.234375 -0.078125q0.15625 0 0.25 0.078125q0.09375 0.0625 0.1875 0.21875l1.0 1.59375q-0.734375 0.59375 -1.671875 0.90625q-0.921875 0.3125 -1.921875 0.3125zm9.331566 -13.890625l0 13.671875l-3.2968826 0l0 -13.671875l3.2968826 0zm0.484375 -3.984375q0 0.421875 -0.171875 0.796875q-0.171875 0.375 -0.453125 0.65625q-0.28125 0.28125 -0.671875 0.453125q-0.390625 0.15625 -0.828125 0.15625q-0.421875 0 -0.8125 -0.15625q-0.37500763 -0.171875 -0.6562576 -0.453125q-0.28125 -0.28125 -0.453125 -0.65625q-0.15625 -0.375 -0.15625 -0.796875q0 -0.4375 0.15625 -0.828125q0.171875 -0.390625 0.453125 -0.671875q0.28125 -0.28125 0.6562576 -0.4375q0.390625 -0.171875 0.8125 -0.171875q0.4375 0 0.828125 0.171875q0.390625 0.15625 0.671875 0.4375q0.28125 0.28125 0.453125 0.671875q0.171875 0.390625 0.171875 0.828125zm12.848816 6.875q-0.15625 0.1875 -0.296875 0.296875q-0.140625 0.109375 -0.40625 0.109375q-0.25 0 -0.5 -0.15625q-0.234375 -0.15625 -0.5625 -0.34375q-0.328125 -0.203125 -0.796875 -0.34375q-0.453125 -0.15625 -1.140625 -0.15625q-0.859375 0 -1.515625 0.3125q-0.65625 0.3125 -1.09375 0.90625q-0.421875 0.578125 -0.640625 1.40625q-0.203125 0.828125 -0.203125 1.890625q0 1.09375 0.21875 1.953125q0.234375 0.84375 0.671875 1.421875q0.453125 0.578125 1.078125 0.875q0.625 0.296875 1.40625 0.296875q0.796875 0 1.28125 -0.1875q0.484375 -0.1875 0.8125 -0.421875q0.328125 -0.234375 0.578125 -0.421875q0.25 -0.203125 0.5625 -0.203125q0.390625 0 0.59375 0.3125l0.953125 1.1875q-0.546875 0.640625 -1.1875 1.078125q-0.640625 0.4375 -1.328125 0.703125q-0.6875 0.25 -1.421875 0.359375q-0.734375 0.109375 -1.453125 0.109375q-1.265625 0 -2.390625 -0.46875q-1.109375 -0.484375 -1.953125 -1.390625q-0.828125 -0.90625 -1.3125 -2.21875q-0.484375 -1.3125 -0.484375 -2.984375q0 -1.515625 0.421875 -2.796875q0.4375 -1.28125 1.28125 -2.21875q0.84375 -0.953125 2.078125 -1.484375q1.234375 -0.53125 2.859375 -0.53125q1.53125 0 2.671875 0.5q1.15625 0.484375 2.078125 1.40625l-0.859375 1.203125z" fill-rule="nonzero"/><path fill="#1a9988" d="m65.07177 102.31338l0 2.84375l-8.53125 0l0 5.34375l6.71875 0l0 2.765625l-6.71875 0l0 5.453125l8.53125 0l0 2.859375l-12.140625 0l0 -19.265625l12.140625 0zm2.9325256 19.265625l0 -13.671875l2.0 0q0.640625 0 0.84375 0.59375l0.234375 1.078125q0.40625 -0.421875 0.859375 -0.765625q0.46875 -0.34375 0.984375 -0.59375q0.515625 -0.265625 1.09375 -0.390625q0.59375 -0.140625 1.28125 -0.140625q1.125 0 1.984375 0.390625q0.875 0.375 1.453125 1.0625q0.578125 0.6875 0.875 1.640625q0.296875 0.953125 0.296875 2.09375l0 8.703125l-3.296875 0l0 -8.703125q0 -1.25 -0.578125 -1.9375q-0.578125 -0.6875 -1.734375 -0.6875q-0.859375 0 -1.609375 0.390625q-0.734375 0.375 -1.40625 1.046875l0 9.890625l-3.28125 0zm19.638397 0.21875q-1.765625 0 -2.734375 -1.0q-0.953125 -1.015625 -0.953125 -2.796875l0 -7.625l-1.390625 0q-0.265625 0 -0.46875 -0.171875q-0.1875 -0.1875 -0.1875 -0.53125l0 -1.296875l2.203125 -0.359375l0.6875 -3.734375q0.0625 -0.265625 0.25 -0.40625q0.203125 -0.15625 0.484375 -0.15625l1.703125 0l0 4.3125l3.609375 0l0 2.34375l-3.609375 0l0 7.40625q0 0.640625 0.3125 1.0q0.328125 0.359375 0.875 0.359375q0.296875 0 0.5 -0.0625q0.21875 -0.078125 0.359375 -0.15625q0.15625 -0.09375 0.28125 -0.15625q0.125 -0.078125 0.234375 -0.078125q0.15625 0 0.25 0.078125q0.09375 0.0625 0.1875 0.21875l1.0 1.59375q-0.734375 0.59375 -1.671875 0.90625q-0.921875 0.3125 -1.921875 0.3125zm5.831558 -0.21875l0 -13.671875l1.921875 0q0.515625 0 0.703125 0.1875q0.203125 0.1875 0.28125 0.640625l0.1875 1.640625q0.734375 -1.265625 1.71875 -1.984375q1.0 -0.734375 2.21875 -0.734375q1.015625 0 1.671875 0.453125l-0.421875 2.46875q-0.03125 0.25 -0.171875 0.34375q-0.125 0.09375 -0.359375 0.09375q-0.203125 0 -0.546875 -0.09375q-0.34375 -0.09375 -0.921875 -0.09375q-1.015625 0 -1.75 0.578125q-0.734375 0.5625 -1.25 1.65625l0 8.515625l-3.28125 0zm15.732788 3.765625q-0.140625 0.34375 -0.375 0.515625q-0.234375 0.1875 -0.71875 0.1875l-2.453125 0l2.5625 -5.484375l-5.53125 -12.65625l2.875 0q0.40625 0 0.609375 0.1875q0.21875 0.1875 0.328125 0.421875l2.921875 7.09375q0.140625 0.34375 0.25 0.71875q0.109375 0.375 0.1875 0.75q0.109375 -0.390625 0.234375 -0.75q0.125 -0.359375 0.265625 -0.734375l2.75 -7.078125q0.109375 -0.265625 0.34375 -0.4375q0.25 -0.171875 0.5625 -0.171875l2.640625 0l-7.453125 17.4375z" fill-rule="nonzero"/><path fill="#ffffff" d="m210.68541 7.9790025l153.60631 0l0 144.0l-153.60631 0z" fill-rule="evenodd"/><path stroke="#eb5600" stroke-width="2.6666666666666665" stroke-linejoin="round" stroke-linecap="butt" d="m210.68541 7.9790025l153.60631 0l0 144.0l-153.60631 0z" fill-rule="evenodd"/><path fill="#eb5600" d="m244.32524 73.579l0 -13.671875l2.0 0q0.640625 0 0.84375 0.59375l0.234375 1.078125q0.40625 -0.421875 0.859375 -0.765625q0.46875 -0.34375 0.984375 -0.59375q0.515625 -0.265625 1.09375 -0.390625q0.59375 -0.140625 1.28125 -0.140625q1.125 0 1.984375 0.390625q0.875 0.375 1.453125 1.0625q0.578125 0.6875 0.875 1.640625q0.29685974 0.953125 0.29685974 2.09375l0 8.703125l-3.2968597 0l0 -8.703125q0 -1.25 -0.578125 -1.9375q-0.578125 -0.6875 -1.734375 -0.6875q-0.859375 0 -1.609375 0.390625q-0.734375 0.375 -1.40625 1.046875l0 9.890625l-3.28125 0zm19.872757 -13.921875q0.890625 0 1.65625 0.1875q0.78125 0.1875 1.421875 0.53125l3.921875 0l0 1.21875q0 0.3125 -0.15625 0.484375q-0.15625 0.171875 -0.546875 0.234375l-1.21875 0.234375q0.125 0.34375 0.1875 0.734375q0.078125 0.375 0.078125 0.8125q0 1.0 -0.40625 1.828125q-0.40625 0.8125 -1.125 1.390625q-0.703125 0.578125 -1.6875 0.890625q-0.96875 0.3125 -2.125 0.3125q-0.765625 0 -1.5 -0.15625q-0.640625 0.390625 -0.640625 0.875q0 0.40625 0.375 0.609375q0.390625 0.1875 1.0 0.265625q0.625 0.078125 1.40625 0.109375q0.796875 0.015625 1.609375 0.078125q0.828125 0.0625 1.609375 0.234375q0.796875 0.171875 1.40625 0.53125q0.625 0.359375 1.0 0.984375q0.390625 0.609375 0.390625 1.578125q0 0.90625 -0.453125 1.765625q-0.4375 0.859375 -1.28125 1.515625q-0.84375 0.671875 -2.078125 1.078125q-1.21875 0.40625 -2.796875 0.40625q-1.5625 0 -2.71875 -0.296875q-1.140625 -0.296875 -1.890625 -0.796875q-0.75 -0.5 -1.125 -1.15625q-0.375 -0.65625 -0.375 -1.359375q0 -0.96875 0.578125 -1.609375q0.59375 -0.65625 1.640625 -1.046875q-0.515625 -0.28125 -0.828125 -0.75q-0.296875 -0.46875 -0.296875 -1.203125q0 -0.3125 0.109375 -0.640625q0.109375 -0.328125 0.328125 -0.640625q0.21875 -0.328125 0.546875 -0.609375q0.34375 -0.28125 0.796875 -0.515625q-1.046875 -0.5625 -1.640625 -1.484375q-0.59375 -0.9375 -0.59375 -2.1875q0 -1.015625 0.40625 -1.828125q0.40625 -0.828125 1.125 -1.40625q0.734375 -0.578125 1.71875 -0.890625q1.0 -0.3125 2.171875 -0.3125zm3.625 14.53125q0 -0.390625 -0.25 -0.640625q-0.234375 -0.265625 -0.65625 -0.40625q-0.40625 -0.140625 -0.96875 -0.203125q-0.546875 -0.0625 -1.171875 -0.09375q-0.609375 -0.03125 -1.28125 -0.0625q-0.65625 -0.046875 -1.265625 -0.125q-0.5625 0.3125 -0.90625 0.734375q-0.328125 0.421875 -0.328125 0.953125q0 0.375 0.171875 0.6875q0.1875 0.3125 0.578125 0.53125q0.390625 0.234375 1.015625 0.359375q0.625 0.125 1.53125 0.125q0.921875 0 1.59375 -0.140625q0.671875 -0.140625 1.09375 -0.390625q0.4375 -0.25 0.640625 -0.59375q0.203125 -0.328125 0.203125 -0.734375zm-3.625 -7.78125q0.625 0 1.078125 -0.15625q0.453125 -0.171875 0.75 -0.46875q0.296875 -0.296875 0.453125 -0.703125q0.15625 -0.421875 0.15625 -0.90625q0 -1.015625 -0.609375 -1.609375q-0.609375 -0.59375 -1.828125 -0.59375q-1.203125 0 -1.8125 0.59375q-0.609375 0.59375 -0.609375 1.609375q0 0.46875 0.15625 0.890625q0.15625 0.40625 0.453125 0.71875q0.296875 0.296875 0.75 0.46875q0.46875 0.15625 1.0625 0.15625zm17.18518 -3.84375q-0.125 0.21875 -0.28125 0.3125q-0.140625 0.078125 -0.375 0.078125q-0.234375 0 -0.515625 -0.125q-0.265625 -0.140625 -0.625 -0.296875q-0.359375 -0.171875 -0.828125 -0.296875q-0.453125 -0.140625 -1.078125 -0.140625q-0.96875 0 -1.53125 0.421875q-0.5625 0.40625 -0.5625 1.0625q0 0.4375 0.28125 0.75q0.296875 0.296875 0.765625 0.53125q0.46875 0.21875 1.0625 0.40625q0.609375 0.171875 1.234375 0.390625q0.625 0.203125 1.21875 0.484375q0.609375 0.265625 1.078125 0.6875q0.484375 0.421875 0.765625 1.015625q0.28125 0.578125 0.28125 1.40625q0 0.984375 -0.359375 1.828125q-0.359375 0.828125 -1.0625 1.4375q-0.6875 0.59375 -1.703125 0.9375q-1.015625 0.34375 -2.34375 0.34375q-0.703125 0 -1.375 -0.140625q-0.671875 -0.125 -1.296875 -0.34375q-0.609375 -0.234375 -1.140625 -0.53125q-0.53125 -0.3125 -0.921875 -0.671875l0.75 -1.25q0.15625 -0.234375 0.34375 -0.34375q0.203125 -0.125 0.515625 -0.125q0.3125 0 0.578125 0.171875q0.28125 0.171875 0.640625 0.375q0.359375 0.203125 0.84375 0.375q0.484375 0.171875 1.234375 0.171875q0.578125 0 1.0 -0.140625q0.421875 -0.140625 0.6875 -0.359375q0.28125 -0.234375 0.40625 -0.53125q0.125 -0.296875 0.125 -0.625q0 -0.46875 -0.28125 -0.78125q-0.28125 -0.3125 -0.765625 -0.53125q-0.46875 -0.234375 -1.078125 -0.40625q-0.609375 -0.1875 -1.25 -0.390625q-0.625 -0.21875 -1.234375 -0.5q-0.59375 -0.296875 -1.078125 -0.734375q-0.46875 -0.4375 -0.765625 -1.078125q-0.28125 -0.640625 -0.28125 -1.546875q0 -0.84375 0.328125 -1.59375q0.34375 -0.765625 0.984375 -1.328125q0.65625 -0.5625 1.609375 -0.90625q0.96875 -0.34375 2.25 -0.34375q1.40625 0 2.5625 0.46875q1.15625 0.46875 1.9375 1.234375l-0.75 1.171875zm3.5393677 15.484375l0 -18.140625l2.0 0q0.328125 0 0.546875 0.15625q0.234375 0.140625 0.296875 0.4375l0.265625 1.265625q0.828125 -0.9375 1.890625 -1.515625q1.078125 -0.59375 2.53125 -0.59375q1.109375 0 2.03125 0.46875q0.9375 0.453125 1.609375 1.34375q0.671875 0.890625 1.03125 2.1875q0.375 1.296875 0.375 2.984375q0 1.53125 -0.421875 2.84375q-0.40625 1.296875 -1.171875 2.265625q-0.765625 0.953125 -1.859375 1.5q-1.078125 0.53125 -2.421875 0.53125q-1.171875 0 -1.984375 -0.34375q-0.796875 -0.359375 -1.4375 -1.0l0 5.609375l-3.28125 0zm6.390625 -15.796875q-1.03125 0 -1.765625 0.4375q-0.71875 0.421875 -1.34375 1.21875l0 6.125q0.5625 0.6875 1.21875 0.96875q0.671875 0.265625 1.421875 0.265625q0.75 0 1.359375 -0.265625q0.609375 -0.28125 1.015625 -0.859375q0.421875 -0.578125 0.640625 -1.4375q0.234375 -0.875 0.234375 -2.0625q0 -1.203125 -0.1875 -2.03125q-0.1875 -0.84375 -0.546875 -1.359375q-0.359375 -0.515625 -0.875 -0.75q-0.515625 -0.25 -1.171875 -0.25zm12.183441 -2.34375l0 13.671875l-3.296875 0l0 -13.671875l3.296875 0zm0.484375 -3.984375q0 0.421875 -0.171875 0.796875q-0.171875 0.375 -0.453125 0.65625q-0.28125 0.28125 -0.671875 0.453125q-0.390625 0.15625 -0.828125 0.15625q-0.421875 0 -0.8125 -0.15625q-0.375 -0.171875 -0.65625 -0.453125q-0.28125 -0.28125 -0.453125 -0.65625q-0.15625 -0.375 -0.15625 -0.796875q0 -0.4375 0.15625 -0.828125q0.171875 -0.390625 0.453125 -0.671875q0.28125 -0.28125 0.65625 -0.4375q0.390625 -0.171875 0.8125 -0.171875q0.4375 0 0.828125 0.171875q0.390625 0.15625 0.671875 0.4375q0.28125 0.28125 0.453125 0.671875q0.171875 0.390625 0.171875 0.828125zm12.848816 6.875q-0.15625 0.1875 -0.296875 0.296875q-0.140625 0.109375 -0.40625 0.109375q-0.25 0 -0.5 -0.15625q-0.234375 -0.15625 -0.5625 -0.34375q-0.328125 -0.203125 -0.796875 -0.34375q-0.453125 -0.15625 -1.140625 -0.15625q-0.859375 0 -1.515625 0.3125q-0.65625 0.3125 -1.09375 0.90625q-0.421875 0.578125 -0.640625 1.40625q-0.203125 0.828125 -0.203125 1.890625q0 1.09375 0.21875 1.953125q0.234375 0.84375 0.671875 1.421875q0.453125 0.578125 1.078125 0.875q0.625 0.296875 1.40625 0.296875q0.796875 0 1.28125 -0.1875q0.484375 -0.1875 0.8125 -0.421875q0.328125 -0.234375 0.578125 -0.421875q0.25 -0.203125 0.5625 -0.203125q0.390625 0 0.59375 0.3125l0.953125 1.1875q-0.546875 0.640625 -1.1875 1.078125q-0.640625 0.4375 -1.328125 0.703125q-0.6875 0.25 -1.421875 0.359375q-0.734375 0.109375 -1.453125 0.109375q-1.265625 0 -2.390625 -0.46875q-1.109375 -0.484375 -1.953125 -1.390625q-0.828125 -0.90625 -1.3125 -2.21875q-0.484375 -1.3125 -0.484375 -2.984375q0 -1.515625 0.421875 -2.796875q0.4375 -1.28125 1.28125 -2.21875q0.84375 -0.953125 2.078125 -1.484375q1.234375 -0.53125 2.859375 -0.53125q1.53125 0 2.671875 0.5q1.15625 0.484375 2.078125 1.40625l-0.859375 1.203125zm8.746216 -3.109375q1.296875 0 2.375 0.421875q1.09375 0.40625 1.875 1.203125q0.796875 0.796875 1.234375 1.953125q0.4375 1.140625 0.4375 2.625q0 0.375 -0.03125 0.625q-0.03125 0.234375 -0.125 0.375q-0.078125 0.140625 -0.234375 0.203125q-0.140625 0.0625 -0.375 0.0625l-8.4375 0q0.140625 2.109375 1.125 3.09375q0.984375 0.984375 2.609375 0.984375q0.796875 0 1.375 -0.1875q0.59375 -0.1875 1.015625 -0.40625q0.4375 -0.234375 0.765625 -0.421875q0.328125 -0.1875 0.640625 -0.1875q0.1875 0 0.328125 0.078125q0.15625 0.078125 0.265625 0.234375l0.953125 1.1875q-0.546875 0.640625 -1.234375 1.078125q-0.671875 0.4375 -1.40625 0.703125q-0.734375 0.25 -1.5 0.359375q-0.765625 0.109375 -1.484375 0.109375q-1.4375 0 -2.671875 -0.46875q-1.21875 -0.484375 -2.125 -1.40625q-0.90625 -0.921875 -1.421875 -2.28125q-0.515625 -1.375 -0.515625 -3.171875q0 -1.40625 0.453125 -2.640625q0.453125 -1.234375 1.296875 -2.140625q0.84375 -0.921875 2.0625 -1.453125q1.21875 -0.53125 2.75 -0.53125zm0.078125 2.359375q-1.453125 0 -2.265625 0.8125q-0.8125 0.8125 -1.03125 2.3125l6.1875 0q0 -0.640625 -0.1875 -1.203125q-0.171875 -0.578125 -0.53125 -1.0q-0.359375 -0.421875 -0.90625 -0.671875q-0.546875 -0.25 -1.265625 -0.25z" fill-rule="nonzero"/><path fill="#1a9988" d="m235.69508 89.81338q-0.15625 0.296875 -0.359375 0.421875q-0.1875 0.109375 -0.453125 0.109375q-0.265625 0 -0.59375 -0.203125q-0.328125 -0.203125 -0.78125 -0.453125q-0.453125 -0.265625 -1.0625 -0.46875q-0.609375 -0.203125 -1.4375 -0.203125q-0.75 0 -1.296875 0.1875q-0.546875 0.171875 -0.9375 0.5q-0.375 0.3125 -0.5625 0.765625q-0.1875 0.4375 -0.1875 0.96875q0 0.671875 0.375 1.125q0.390625 0.453125 1.015625 0.78125q0.625 0.3125 1.421875 0.578125q0.796875 0.25 1.625 0.546875q0.84375 0.28125 1.640625 0.65625q0.796875 0.375 1.421875 0.953125q0.625 0.578125 1.0 1.421875q0.390625 0.84375 0.390625 2.046875q0 1.296875 -0.453125 2.4375q-0.4375 1.140625 -1.296875 1.984375q-0.859375 0.84375 -2.109375 1.34375q-1.234375 0.484375 -2.828125 0.484375q-0.921875 0 -1.8125 -0.1875q-0.890625 -0.171875 -1.71875 -0.5q-0.8125 -0.34375 -1.53125 -0.8125q-0.703125 -0.46875 -1.265625 -1.03125l1.03125 -1.71875q0.15625 -0.1875 0.359375 -0.3125q0.203125 -0.140625 0.453125 -0.140625q0.34375 0 0.71875 0.28125q0.390625 0.265625 0.90625 0.609375q0.53125 0.328125 1.25 0.609375q0.71875 0.265625 1.71875 0.265625q1.53125 0 2.359375 -0.71875q0.84375 -0.734375 0.84375 -2.09375q0 -0.765625 -0.375 -1.234375q-0.375 -0.484375 -1.015625 -0.8125q-0.625 -0.328125 -1.421875 -0.546875q-0.796875 -0.234375 -1.625 -0.5q-0.828125 -0.265625 -1.625 -0.640625q-0.796875 -0.375 -1.421875 -0.96875q-0.625 -0.59375 -1.015625 -1.5q-0.375 -0.90625 -0.375 -2.21875q0 -1.046875 0.421875 -2.046875q0.421875 -1.0 1.21875 -1.765625q0.8125 -0.78125 1.984375 -1.25q1.171875 -0.46875 2.6875 -0.46875q1.703125 0 3.140625 0.53125q1.4375 0.53125 2.453125 1.5l-0.875 1.6875zm7.2854004 2.09375l0 13.671875l-3.296875 0l0 -13.671875l3.296875 0zm0.484375 -3.984375q0 0.421875 -0.171875 0.796875q-0.171875 0.375 -0.453125 0.65625q-0.28125 0.28125 -0.671875 0.453125q-0.390625 0.15625 -0.828125 0.15625q-0.421875 0 -0.8125 -0.15625q-0.375 -0.171875 -0.65625 -0.453125q-0.28125 -0.28125 -0.453125 -0.65625q-0.15625 -0.375 -0.15625 -0.796875q0 -0.4375 0.15625 -0.828125q0.171875 -0.390625 0.453125 -0.671875q0.28125 -0.28125 0.65625 -0.4375q0.390625 -0.171875 0.8125 -0.171875q0.4375 0 0.828125 0.171875q0.390625 0.15625 0.671875 0.4375q0.28125 0.28125 0.453125 0.671875q0.171875 0.390625 0.171875 0.828125zm3.239441 17.65625l0 -13.671875l2.0 0q0.640625 0 0.84375 0.59375l0.21875 1.015625q0.359375 -0.40625 0.75 -0.734375q0.390625 -0.328125 0.828125 -0.5625q0.453125 -0.25 0.96875 -0.390625q0.515625 -0.140625 1.125 -0.140625q1.296875 0 2.125 0.703125q0.84373474 0.703125 1.2499847 1.859375q0.3125 -0.6875 0.796875 -1.171875q0.484375 -0.484375 1.046875 -0.78125q0.578125 -0.3125 1.21875 -0.453125q0.65625 -0.15625 1.3125 -0.15625q1.125 0 2.0 0.359375q0.890625 0.34375 1.484375 1.015625q0.609375 0.65625 0.921875 1.625q0.3125 0.953125 0.3125 2.1875l0 8.703125l-3.296875 0l0 -8.703125q0 -1.3125 -0.578125 -1.96875q-0.5625 -0.65625 -1.671875 -0.65625q-0.5 0 -0.9375 0.171875q-0.4375 0.171875 -0.765625 0.5q-0.328125 0.328125 -0.515625 0.828125q-0.1875 0.484375 -0.1875 1.125l0 8.703125l-3.2968597 0l0 -8.703125q0 -1.375 -0.5625 -2.0q-0.546875 -0.625 -1.625 -0.625q-0.703125 0 -1.328125 0.359375q-0.625 0.34375 -1.15625 0.953125l0 10.015625l-3.28125 0zm25.444473 -13.671875l0 8.6875q0 1.25 0.578125 1.9375q0.59375 0.6875 1.75 0.6875q0.84375 0 1.59375 -0.375q0.75 -0.390625 1.421875 -1.046875l0 -9.890625l3.28125 0l0 13.671875l-2.015625 0q-0.625 0 -0.828125 -0.59375l-0.234375 -1.09375q-0.421875 0.421875 -0.875 0.78125q-0.453125 0.34375 -0.96875 0.59375q-0.515625 0.25 -1.109375 0.390625q-0.59375 0.140625 -1.265625 0.140625q-1.125 0 -1.984375 -0.375q-0.859375 -0.390625 -1.453125 -1.078125q-0.578125 -0.703125 -0.875 -1.65625q-0.296875 -0.953125 -0.296875 -2.09375l0 -8.6875l3.28125 0zm15.654022 -6.140625l0 19.8125l-3.296875 0l0 -19.8125l3.296875 0zm14.426941 19.8125l-1.46875 0q-0.46875 0 -0.734375 -0.140625q-0.265625 -0.140625 -0.40625 -0.5625l-0.296875 -0.96875q-0.515625 0.453125 -1.015625 0.8125q-0.5 0.359375 -1.03125 0.59375q-0.53125 0.234375 -1.140625 0.359375q-0.59375 0.125 -1.328125 0.125q-0.859375 0 -1.59375 -0.234375q-0.734375 -0.234375 -1.265625 -0.703125q-0.515625 -0.46875 -0.8125 -1.15625q-0.296875 -0.703125 -0.296875 -1.609375q0 -0.78125 0.40625 -1.53125q0.40625 -0.75 1.34375 -1.359375q0.953125 -0.609375 2.53125 -1.0q1.578125 -0.40625 3.90625 -0.46875l0 -0.796875q0 -1.375 -0.578125 -2.03125q-0.578125 -0.65625 -1.6875 -0.65625q-0.796875 0 -1.34375 0.1875q-0.53125 0.1875 -0.921875 0.421875q-0.390625 0.234375 -0.734375 0.421875q-0.328125 0.1875 -0.71875 0.1875q-0.328125 0 -0.578125 -0.171875q-0.234375 -0.1875 -0.390625 -0.4375l-0.59375 -1.046875q2.359375 -2.15625 5.6875 -2.15625q1.203125 0 2.140625 0.390625q0.9375 0.390625 1.59375 1.09375q0.65625 0.703125 0.984375 1.671875q0.34375 0.96875 0.34375 2.125l0 8.640625zm-6.390625 -2.046875q0.5 0 0.921875 -0.09375q0.4375 -0.09375 0.8125 -0.28125q0.390625 -0.1875 0.734375 -0.453125q0.359375 -0.28125 0.71875 -0.65625l0 -2.3125q-1.4375 0.078125 -2.40625 0.265625q-0.96875 0.171875 -1.5625 0.453125q-0.578125 0.28125 -0.828125 0.65625q-0.25 0.359375 -0.25 0.796875q0 0.875 0.515625 1.25q0.515625 0.375 1.34375 0.375zm14.126373 2.265625q-1.765625 0 -2.734375 -1.0q-0.953125 -1.015625 -0.953125 -2.796875l0 -7.625l-1.390625 0q-0.265625 0 -0.46875 -0.171875q-0.1875 -0.1875 -0.1875 -0.53125l0 -1.296875l2.203125 -0.359375l0.6875 -3.734375q0.0625 -0.265625 0.25 -0.40625q0.203125 -0.15625 0.484375 -0.15625l1.703125 0l0 4.3125l3.609375 0l0 2.34375l-3.609375 0l0 7.40625q0 0.640625 0.3125 1.0q0.328125 0.359375 0.875 0.359375q0.296875 0 0.5 -0.0625q0.21875 -0.078125 0.359375 -0.15625q0.15625 -0.09375 0.28125 -0.15625q0.125 -0.078125 0.234375 -0.078125q0.15625 0 0.25 0.078125q0.09375 0.0625 0.1875 0.21875l1.0 1.59375q-0.734375 0.59375 -1.671875 0.90625q-0.921875 0.3125 -1.921875 0.3125zm9.331543 -13.890625l0 13.671875l-3.296875 0l0 -13.671875l3.296875 0zm0.484375 -3.984375q0 0.421875 -0.171875 0.796875q-0.171875 0.375 -0.453125 0.65625q-0.28125 0.28125 -0.671875 0.453125q-0.390625 0.15625 -0.828125 0.15625q-0.421875 0 -0.8125 -0.15625q-0.375 -0.171875 -0.65625 -0.453125q-0.28125 -0.28125 -0.453125 -0.65625q-0.15625 -0.375 -0.15625 -0.796875q0 -0.4375 0.15625 -0.828125q0.171875 -0.390625 0.453125 -0.671875q0.28125 -0.28125 0.65625 -0.4375q0.390625 -0.171875 0.8125 -0.171875q0.4375 0 0.828125 0.171875q0.390625 0.15625 0.671875 0.4375q0.28125 0.28125 0.453125 0.671875q0.171875 0.390625 0.171875 0.828125zm9.067566 3.765625q1.53125 0 2.78125 0.5q1.25 0.484375 2.125 1.390625q0.875 0.90625 1.359375 2.21875q0.484375 1.296875 0.484375 2.921875q0 1.625 -0.484375 2.9375q-0.484375 1.296875 -1.359375 2.21875q-0.875 0.921875 -2.125 1.421875q-1.25 0.484375 -2.78125 0.484375q-1.53125 0 -2.78125 -0.484375q-1.25 -0.5 -2.140625 -1.421875q-0.890625 -0.921875 -1.375 -2.21875q-0.484375 -1.3125 -0.484375 -2.9375q0 -1.625 0.484375 -2.921875q0.484375 -1.3125 1.375 -2.21875q0.890625 -0.90625 2.140625 -1.390625q1.25 -0.5 2.78125 -0.5zm0 11.5625q1.703125 0 2.515625 -1.140625q0.828125 -1.15625 0.828125 -3.375q0 -2.203125 -0.828125 -3.359375q-0.8125 -1.171875 -2.515625 -1.171875q-1.734375 0 -2.5625 1.171875q-0.8125 1.171875 -0.8125 3.359375q0 2.203125 0.8125 3.359375q0.828125 1.15625 2.5625 1.15625zm9.325897 2.328125l0 -13.671875l2.0 0q0.640625 0 0.84375 0.59375l0.234375 1.078125q0.40625 -0.421875 0.859375 -0.765625q0.46875 -0.34375 0.984375 -0.59375q0.515625 -0.265625 1.09375 -0.390625q0.59375 -0.140625 1.28125 -0.140625q1.125 0 1.984375 0.390625q0.875 0.375 1.453125 1.0625q0.578125 0.6875 0.875 1.640625q0.296875 0.953125 0.296875 2.09375l0 8.703125l-3.296875 0l0 -8.703125q0 -1.25 -0.578125 -1.9375q-0.578125 -0.6875 -1.734375 -0.6875q-0.859375 0 -1.609375 0.390625q-0.734375 0.375 -1.40625 1.046875l0 9.890625l-3.28125 0z" fill-rule="nonzero"/><path fill="#ffffff" d="m414.13385 7.9790025l153.60632 0l0 144.0315l-153.60632 0z" fill-rule="evenodd"/><path stroke="#eb5600" stroke-width="2.6666666666666665" stroke-linejoin="round" stroke-linecap="butt" d="m414.13385 7.9790025l153.60632 0l0 144.0315l-153.60632 0z" fill-rule="evenodd"/><path fill="#eb5600" d="m457.63647 41.594753l0 -13.671877l2.0 0q0.640625 0 0.84375 0.59375l0.21875 1.015625q0.359375 -0.40625 0.75 -0.734375q0.390625 -0.328125 0.828125 -0.5625q0.453125 -0.25 0.96875 -0.390625q0.515625 -0.140625 1.125 -0.140625q1.296875 0 2.125 0.703125q0.84375 0.703125 1.25 1.859375q0.3125 -0.6875 0.796875 -1.171875q0.484375 -0.484375 1.046875 -0.78125q0.578125 -0.3125 1.21875 -0.453125q0.65625 -0.15625 1.3125 -0.15625q1.125 0 2.0 0.359375q0.890625 0.34375 1.484375 1.015625q0.609375 0.65625 0.921875 1.625q0.3125 0.953125 0.3125 2.187502l0 8.703125l-3.296875 0l0 -8.703125q0 -1.3125019 -0.578125 -1.9687519q-0.5625 -0.65625 -1.671875 -0.65625q-0.5 0 -0.9375 0.171875q-0.4375 0.171875 -0.765625 0.5q-0.328125 0.328125 -0.515625 0.828125q-0.1875 0.4843769 -0.1875 1.1250019l0 8.703125l-3.296875 0l0 -8.703125q0 -1.3750019 -0.5625 -2.000002q-0.546875 -0.625 -1.625 -0.625q-0.703125 0 -1.328125 0.359375q-0.625 0.34375 -1.15625 0.953125l0 10.015627l-3.28125 0zm33.147583 0l-1.46875 0q-0.46875 0 -0.734375 -0.140625q-0.265625 -0.140625 -0.40625 -0.5625l-0.296875 -0.96875q-0.515625 0.453125 -1.015625 0.8125q-0.5 0.359375 -1.03125 0.59375q-0.53125 0.234375 -1.140625 0.359375q-0.59375 0.125 -1.328125 0.125q-0.859375 0 -1.59375 -0.234375q-0.734375 -0.234375 -1.265625 -0.703125q-0.515625 -0.46875 -0.8125 -1.15625q-0.296875 -0.703125 -0.296875 -1.609375q0 -0.78125 0.40625 -1.53125q0.40625 -0.75 1.34375 -1.359375q0.953125 -0.609375 2.53125 -1.0q1.578125 -0.40625 3.90625 -0.46875l0 -0.796875q0 -1.3750019 -0.578125 -2.031252q-0.578125 -0.65625 -1.6875 -0.65625q-0.796875 0 -1.34375 0.1875q-0.53125 0.1875 -0.921875 0.421875q-0.390625 0.234375 -0.734375 0.421875q-0.328125 0.1875 -0.71875 0.1875q-0.328125 0 -0.578125 -0.171875q-0.234375 -0.1875 -0.390625 -0.4375l-0.59375 -1.046875q2.359375 -2.15625 5.6875 -2.15625q1.203125 0 2.140625 0.390625q0.9375 0.390625 1.59375 1.09375q0.65625 0.703125 0.984375 1.671875q0.34375 0.96875 0.34375 2.125002l0 8.640625zm-6.390625 -2.046875q0.5 0 0.921875 -0.09375q0.4375 -0.09375 0.8125 -0.28125q0.390625 -0.1875 0.734375 -0.453125q0.359375 -0.28125 0.71875 -0.65625l0 -2.3125q-1.4375 0.078125 -2.40625 0.265625q-0.96875 0.171875 -1.5625 0.453125q-0.578125 0.28125 -0.828125 0.65625q-0.25 0.359375 -0.25 0.796875q0 0.875 0.515625 1.25q0.515625 0.375 1.34375 0.375zm14.360748 -11.875002q0.890625 0 1.65625 0.1875q0.78125 0.1875 1.421875 0.53125l3.921875 0l0 1.21875q0 0.3125 -0.15625 0.484375q-0.15625 0.171875 -0.546875 0.234375l-1.21875 0.234375q0.125 0.34375 0.1875 0.734375q0.078125 0.375 0.078125 0.8125019q0 1.0 -0.40625 1.828125q-0.40625 0.8125 -1.125 1.390625q-0.703125 0.578125 -1.6875 0.890625q-0.96875 0.3125 -2.125 0.3125q-0.765625 0 -1.5 -0.15625q-0.640625 0.390625 -0.640625 0.875q0 0.40625 0.375 0.609375q0.390625 0.1875 1.0 0.265625q0.625 0.078125 1.40625 0.109375q0.796875 0.015625 1.609375 0.078125q0.828125 0.0625 1.609375 0.234375q0.796875 0.171875 1.40625 0.53125q0.625 0.359375 1.0 0.984375q0.390625 0.609375 0.390625 1.578125q0 0.90625 -0.453125 1.765625q-0.4375 0.859375 -1.28125 1.515625q-0.84375 0.671875 -2.078125 1.078125q-1.21875 0.40625 -2.796875 0.40625q-1.5625 0 -2.71875 -0.296875q-1.140625 -0.296875 -1.890625 -0.796875q-0.75 -0.5 -1.125 -1.15625q-0.375 -0.65625 -0.375 -1.359375q0 -0.96875 0.578125 -1.609375q0.59375 -0.65625 1.640625 -1.046875q-0.515625 -0.28125 -0.828125 -0.75q-0.296875 -0.46875 -0.296875 -1.203125q0 -0.3125 0.109375 -0.640625q0.109375 -0.328125 0.328125 -0.640625q0.21875 -0.328125 0.546875 -0.609375q0.34375 -0.28125 0.796875 -0.515625q-1.046875 -0.5625 -1.640625 -1.484375q-0.59375 -0.9375 -0.59375 -2.1875q0 -1.0156269 0.40625 -1.8281269q0.40625 -0.828125 1.125 -1.40625q0.734375 -0.578125 1.71875 -0.890625q1.0 -0.3125 2.171875 -0.3125zm3.625 14.531252q0 -0.390625 -0.25 -0.640625q-0.234375 -0.265625 -0.65625 -0.40625q-0.40625 -0.140625 -0.96875 -0.203125q-0.546875 -0.0625 -1.171875 -0.09375q-0.609375 -0.03125 -1.28125 -0.0625q-0.65625 -0.046875 -1.265625 -0.125q-0.5625 0.3125 -0.90625 0.734375q-0.328125 0.421875 -0.328125 0.953125q0 0.375 0.171875 0.6875q0.1875 0.3125 0.578125 0.53125q0.390625 0.234375 1.015625 0.359375q0.625 0.125 1.53125 0.125q0.921875 0 1.59375 -0.140625q0.671875 -0.140625 1.09375 -0.390625q0.4375 -0.25 0.640625 -0.59375q0.203125 -0.328125 0.203125 -0.734375zm-3.625 -7.78125q0.625 0 1.078125 -0.15625q0.453125 -0.171875 0.75 -0.46875q0.296875 -0.296875 0.453125 -0.703125q0.15625 -0.421875 0.15625 -0.90625q0 -1.0156269 -0.609375 -1.6093769q-0.609375 -0.59375 -1.828125 -0.59375q-1.203125 0 -1.8125 0.59375q-0.609375 0.59375 -0.609375 1.6093769q0 0.46875 0.15625 0.890625q0.15625 0.40625 0.453125 0.71875q0.296875 0.296875 0.75 0.46875q0.46875 0.15625 1.0625 0.15625zm12.575806 -6.500002l0 13.671877l-3.296875 0l0 -13.671877l3.296875 0zm0.484375 -3.984375q0 0.421875 -0.171875 0.796875q-0.171875 0.375 -0.453125 0.65625q-0.28125 0.28125 -0.671875 0.453125q-0.390625 0.15625 -0.828125 0.15625q-0.421875 0 -0.8125 -0.15625q-0.375 -0.171875 -0.65625 -0.453125q-0.28125 -0.28125 -0.453125 -0.65625q-0.15625 -0.375 -0.15625 -0.796875q0 -0.4375 0.15625 -0.828125q0.171875 -0.390625 0.453125 -0.671875q0.28125 -0.28125 0.65625 -0.4375q0.390625 -0.171875 0.8125 -0.171875q0.4375 0 0.828125 0.171875q0.390625 0.15625 0.671875 0.4375q0.28125 0.28125 0.453125 0.671875q0.171875 0.390625 0.171875 0.828125zm12.848846 6.875q-0.15625 0.1875 -0.296875 0.296875q-0.140625 0.109375 -0.40625 0.109375q-0.25 0 -0.5 -0.15625q-0.234375 -0.15625 -0.5625 -0.34375q-0.328125 -0.203125 -0.796875 -0.34375q-0.453125 -0.15625 -1.140625 -0.15625q-0.859375 0 -1.515625 0.3125q-0.65625 0.3125 -1.09375 0.90625q-0.421875 0.5781269 -0.640625 1.4062519q-0.203125 0.828125 -0.203125 1.890625q0 1.09375 0.21875 1.953125q0.234375 0.84375 0.671875 1.421875q0.453125 0.578125 1.078125 0.875q0.625 0.296875 1.40625 0.296875q0.796875 0 1.28125 -0.1875q0.484375 -0.1875 0.8125 -0.421875q0.328125 -0.234375 0.578125 -0.421875q0.25 -0.203125 0.5625 -0.203125q0.390625 0 0.59375 0.3125l0.953125 1.1875q-0.546875 0.640625 -1.1875 1.078125q-0.640625 0.4375 -1.328125 0.703125q-0.6875 0.25 -1.421875 0.359375q-0.734375 0.109375 -1.453125 0.109375q-1.265625 0 -2.390625 -0.46875q-1.109375 -0.484375 -1.953125 -1.390625q-0.828125 -0.90625 -1.3125 -2.21875q-0.484375 -1.3125 -0.484375 -2.984375q0 -1.515625 0.421875 -2.796877q0.4375 -1.28125 1.28125 -2.21875q0.84375 -0.953125 2.078125 -1.484375q1.234375 -0.53125 2.859375 -0.53125q1.53125 0 2.671875 0.5q1.15625 0.484375 2.078125 1.40625l-0.859375 1.203125z" fill-rule="nonzero"/><path fill="#1a9988" d="m455.63788 70.641624l7.71875 0l0 2.953125l-11.296875 0l0 -19.265625l3.578125 0l0 16.3125zm20.71872 2.953125l-1.46875 0q-0.46875 0 -0.734375 -0.140625q-0.265625 -0.140625 -0.40625 -0.5625l-0.296875 -0.96875q-0.515625 0.453125 -1.015625 0.8125q-0.5 0.359375 -1.03125 0.59375q-0.53125 0.234375 -1.140625 0.359375q-0.59375 0.125 -1.328125 0.125q-0.859375 0 -1.59375 -0.234375q-0.734375 -0.234375 -1.265625 -0.703125q-0.515625 -0.46875 -0.8125 -1.15625q-0.296875 -0.703125 -0.296875 -1.609375q0 -0.78125 0.40625 -1.53125q0.40625 -0.75 1.34375 -1.359375q0.953125 -0.609375 2.53125 -1.0q1.578125 -0.40625 3.90625 -0.46875l0 -0.796875q0 -1.375 -0.578125 -2.03125q-0.578125 -0.65625 -1.6875 -0.65625q-0.796875 0 -1.34375 0.1875q-0.53125 0.1875 -0.921875 0.421875q-0.390625 0.234375 -0.734375 0.421875q-0.328125 0.1875 -0.71875 0.1875q-0.328125 0 -0.578125 -0.171875q-0.234375 -0.1875 -0.390625 -0.4375l-0.59375 -1.046875q2.359375 -2.15625 5.6875 -2.15625q1.203125 0 2.140625 0.390625q0.9375 0.390625 1.59375 1.09375q0.65625 0.703125 0.984375 1.671875q0.34375 0.96875 0.34375 2.125l0 8.640625zm-6.390625 -2.046875q0.5 0 0.921875 -0.09375q0.4375 -0.09375 0.8125 -0.28125q0.390625 -0.1875 0.734375 -0.453125q0.359375 -0.28125 0.71875 -0.65625l0 -2.3125q-1.4375 0.078125 -2.40625 0.265625q-0.96875 0.171875 -1.5625 0.453125q-0.578125 0.28125 -0.828125 0.65625q-0.25 0.359375 -0.25 0.796875q0 0.875 0.515625 1.25q0.515625 0.375 1.34375 0.375zm14.005768 5.8125q-0.140625 0.34375 -0.375 0.515625q-0.234375 0.1875 -0.71875 0.1875l-2.453125 0l2.5625 -5.484375l-5.53125 -12.65625l2.875 0q0.40625 0 0.609375 0.1875q0.21875 0.1875 0.328125 0.421875l2.921875 7.09375q0.140625 0.34375 0.25 0.71875q0.109375 0.375 0.1875 0.75q0.109375 -0.390625 0.234375 -0.75q0.125 -0.359375 0.265625 -0.734375l2.75 -7.078125q0.109375 -0.265625 0.34375 -0.4375q0.25 -0.171875 0.5625 -0.171875l2.640625 0l-7.453125 17.4375zm14.765411 -17.65625q1.53125 0 2.78125 0.5q1.25 0.484375 2.125 1.390625q0.875 0.90625 1.359375 2.21875q0.484375 1.296875 0.484375 2.921875q0 1.625 -0.484375 2.9375q-0.484375 1.296875 -1.359375 2.21875q-0.875 0.921875 -2.125 1.421875q-1.25 0.484375 -2.78125 0.484375q-1.53125 0 -2.78125 -0.484375q-1.25 -0.5 -2.140625 -1.421875q-0.890625 -0.921875 -1.375 -2.21875q-0.484375 -1.3125 -0.484375 -2.9375q0 -1.625 0.484375 -2.921875q0.484375 -1.3125 1.375 -2.21875q0.890625 -0.90625 2.140625 -1.390625q1.25 -0.5 2.78125 -0.5zm0 11.5625q1.703125 0 2.515625 -1.140625q0.828125 -1.15625 0.828125 -3.375q0 -2.203125 -0.828125 -3.359375q-0.8125 -1.171875 -2.515625 -1.171875q-1.734375 0 -2.5625 1.171875q-0.8125 1.171875 -0.8125 3.359375q0 2.203125 0.8125 3.359375q0.828125 1.15625 2.5625 1.15625zm12.325897 -11.34375l0 8.6875q0 1.25 0.578125 1.9375q0.59375 0.6875 1.75 0.6875q0.84375 0 1.59375 -0.375q0.75 -0.390625 1.421875 -1.046875l0 -9.890625l3.28125 0l0 13.671875l-2.015625 0q-0.625 0 -0.828125 -0.59375l-0.234375 -1.09375q-0.421875 0.421875 -0.875 0.78125q-0.453125 0.34375 -0.96875 0.59375q-0.515625 0.25 -1.109375 0.390625q-0.59375 0.140625 -1.265625 0.140625q-1.125 0 -1.984375 -0.375q-0.859375 -0.390625 -1.453125 -1.078125q-0.578125 -0.703125 -0.875 -1.65625q-0.296875 -0.953125 -0.296875 -2.09375l0 -8.6875l3.28125 0zm16.638428 13.890625q-1.765625 0 -2.734375 -1.0q-0.953125 -1.015625 -0.953125 -2.796875l0 -7.625l-1.390625 0q-0.265625 0 -0.46875 -0.171875q-0.1875 -0.1875 -0.1875 -0.53125l0 -1.296875l2.203125 -0.359375l0.6875 -3.734375q0.0625 -0.265625 0.25 -0.40625q0.203125 -0.15625 0.484375 -0.15625l1.703125 0l0 4.3125l3.609375 0l0 2.34375l-3.609375 0l0 7.40625q0 0.640625 0.3125 1.0q0.328125 0.359375 0.875 0.359375q0.296875 0 0.5 -0.0625q0.21875 -0.078125 0.359375 -0.15625q0.15625 -0.09375 0.28125 -0.15625q0.125 -0.078125 0.234375 -0.078125q0.15625 0 0.25 0.078125q0.09375 0.0625 0.1875 0.21875l1.0 1.59375q-0.734375 0.59375 -1.671875 0.90625q-0.921875 0.3125 -1.921875 0.3125z" fill-rule="nonzero"/><path fill="#1a9988" d="m442.5355 86.329124l0 2.84375l-8.53125 0l0 5.34375l6.71875 0l0 2.765625l-6.71875 0l0 5.453125l8.53125 0l0 2.859375l-12.140625 0l0 -19.265625l12.140625 0zm6.1669006 12.21875l-4.5 -6.625l3.171875 0q0.359375 0 0.53125 0.109375q0.1875 0.09375 0.3125 0.3125l2.875 4.578125q0.0625 -0.234375 0.15625 -0.453125q0.109375 -0.234375 0.25 -0.453125l2.3125 -3.609375q0.15625 -0.25 0.328125 -0.359375q0.171875 -0.125 0.421875 -0.125l3.03125 0l-4.5 6.46875l4.6875 7.203125l-3.171875 0q-0.359375 0 -0.578125 -0.1875q-0.21875 -0.1875 -0.375 -0.421875l-2.90625 -4.765625q-0.109375 0.484375 -0.328125 0.796875l-2.5625 3.96875q-0.140625 0.21875 -0.359375 0.421875q-0.21875 0.1875 -0.53125 0.1875l-2.953125 0l4.6875 -7.046875zm15.644318 7.265625q-1.765625 0 -2.734375 -1.0q-0.953125 -1.015625 -0.953125 -2.796875l0 -7.625l-1.390625 0q-0.265625 0 -0.46875 -0.171875q-0.1875 -0.1875 -0.1875 -0.53125l0 -1.296875l2.203125 -0.359375l0.6875 -3.734375q0.0625 -0.265625 0.25 -0.40625q0.203125 -0.15625 0.484375 -0.15625l1.703125 0l0 4.3125l3.609375 0l0 2.34375l-3.609375 0l0 7.40625q0 0.640625 0.3125 1.0q0.328125 0.359375 0.875 0.359375q0.296875 0 0.5 -0.0625q0.21875 -0.078125 0.359375 -0.15625q0.15625 -0.09375 0.28125 -0.15625q0.125 -0.078125 0.234375 -0.078125q0.15625 0 0.25 0.078125q0.09375 0.0625 0.1875 0.21875l1.0 1.59375q-0.734375 0.59375 -1.671875 0.90625q-0.921875 0.3125 -1.921875 0.3125zm5.831543 -0.21875l0 -13.671875l1.921875 0q0.515625 0 0.703125 0.1875q0.203125 0.1875 0.28125 0.640625l0.1875 1.640625q0.734375 -1.265625 1.71875 -1.984375q1.0 -0.734375 2.21875 -0.734375q1.015625 0 1.671875 0.453125l-0.421875 2.46875q-0.03125 0.25 -0.171875 0.34375q-0.125 0.09375 -0.359375 0.09375q-0.203125 0 -0.546875 -0.09375q-0.34375 -0.09375 -0.921875 -0.09375q-1.015625 0 -1.75 0.578125q-0.734375 0.5625 -1.25 1.65625l0 8.515625l-3.28125 0zm21.205505 0l-1.46875 0q-0.46875 0 -0.734375 -0.140625q-0.265625 -0.140625 -0.40625 -0.5625l-0.296875 -0.96875q-0.515625 0.453125 -1.015625 0.8125q-0.5 0.359375 -1.03125 0.59375q-0.53125 0.234375 -1.140625 0.359375q-0.59375 0.125 -1.328125 0.125q-0.859375 0 -1.59375 -0.234375q-0.734375 -0.234375 -1.265625 -0.703125q-0.515625 -0.46875 -0.8125 -1.15625q-0.296875 -0.703125 -0.296875 -1.609375q0 -0.78125 0.40625 -1.53125q0.40625 -0.75 1.34375 -1.359375q0.953125 -0.609375 2.53125 -1.0q1.578125 -0.40625 3.90625 -0.46875l0 -0.796875q0 -1.375 -0.578125 -2.03125q-0.578125 -0.65625 -1.6875 -0.65625q-0.796875 0 -1.34375 0.1875q-0.53125 0.1875 -0.921875 0.421875q-0.390625 0.234375 -0.734375 0.421875q-0.328125 0.1875 -0.71875 0.1875q-0.328125 0 -0.578125 -0.171875q-0.234375 -0.1875 -0.390625 -0.4375l-0.59375 -1.046875q2.359375 -2.15625 5.6875 -2.15625q1.203125 0 2.140625 0.390625q0.9375 0.390625 1.59375 1.09375q0.65625 0.703125 0.984375 1.671875q0.34375 0.96875 0.34375 2.125l0 8.640625zm-6.390625 -2.046875q0.5 0 0.921875 -0.09375q0.4375 -0.09375 0.8125 -0.28125q0.390625 -0.1875 0.734375 -0.453125q0.359375 -0.28125 0.71875 -0.65625l0 -2.3125q-1.4375 0.078125 -2.40625 0.265625q-0.96875 0.171875 -1.5625 0.453125q-0.578125 0.28125 -0.828125 0.65625q-0.25 0.359375 -0.25 0.796875q0 0.875 0.515625 1.25q0.515625 0.375 1.34375 0.375zm19.251373 -8.734375q-0.15625 0.1875 -0.296875 0.296875q-0.140625 0.109375 -0.40625 0.109375q-0.25 0 -0.5 -0.15625q-0.234375 -0.15625 -0.5625 -0.34375q-0.328125 -0.203125 -0.796875 -0.34375q-0.453125 -0.15625 -1.140625 -0.15625q-0.859375 0 -1.515625 0.3125q-0.65625 0.3125 -1.09375 0.90625q-0.421875 0.578125 -0.640625 1.40625q-0.203125 0.828125 -0.203125 1.890625q0 1.09375 0.21875 1.953125q0.234375 0.84375 0.671875 1.421875q0.453125 0.578125 1.078125 0.875q0.625 0.296875 1.40625 0.296875q0.796875 0 1.28125 -0.1875q0.484375 -0.1875 0.8125 -0.421875q0.328125 -0.234375 0.578125 -0.421875q0.25 -0.203125 0.5625 -0.203125q0.390625 0 0.59375 0.3125l0.953125 1.1875q-0.546875 0.640625 -1.1875 1.078125q-0.640625 0.4375 -1.328125 0.703125q-0.6875 0.25 -1.421875 0.359375q-0.734375 0.109375 -1.453125 0.109375q-1.265625 0 -2.390625 -0.46875q-1.109375 -0.484375 -1.953125 -1.390625q-0.828125 -0.90625 -1.3125 -2.21875q-0.484375 -1.3125 -0.484375 -2.984375q0 -1.515625 0.421875 -2.796875q0.4375 -1.28125 1.28125 -2.21875q0.84375 -0.953125 2.078125 -1.484375q1.234375 -0.53125 2.859375 -0.53125q1.53125 0 2.671875 0.5q1.15625 0.484375 2.078125 1.40625l-0.859375 1.203125zm7.589966 11.0q-1.765625 0 -2.734375 -1.0q-0.953125 -1.015625 -0.953125 -2.796875l0 -7.625l-1.390625 0q-0.265625 0 -0.46875 -0.171875q-0.1875 -0.1875 -0.1875 -0.53125l0 -1.296875l2.203125 -0.359375l0.6875 -3.734375q0.0625 -0.265625 0.25 -0.40625q0.203125 -0.15625 0.484375 -0.15625l1.703125 0l0 4.3125l3.609375 0l0 2.34375l-3.609375 0l0 7.40625q0 0.640625 0.3125 1.0q0.328125 0.359375 0.875 0.359375q0.296875 0 0.5 -0.0625q0.21875 -0.078125 0.359375 -0.15625q0.15625 -0.09375 0.28125 -0.15625q0.125 -0.078125 0.234375 -0.078125q0.15625 0 0.25 0.078125q0.09375 0.0625 0.1875 0.21875l1.0 1.59375q-0.734375 0.59375 -1.671875 0.90625q-0.921875 0.3125 -1.921875 0.3125zm9.331543 -13.890625l0 13.671875l-3.296875 0l0 -13.671875l3.296875 0zm0.484375 -3.984375q0 0.421875 -0.171875 0.796875q-0.171875 0.375 -0.453125 0.65625q-0.28125 0.28125 -0.671875 0.453125q-0.390625 0.15625 -0.828125 0.15625q-0.421875 0 -0.8125 -0.15625q-0.375 -0.171875 -0.65625 -0.453125q-0.28125 -0.28125 -0.453125 -0.65625q-0.15625 -0.375 -0.15625 -0.796875q0 -0.4375 0.15625 -0.828125q0.171875 -0.390625 0.453125 -0.671875q0.28125 -0.28125 0.65625 -0.4375q0.390625 -0.171875 0.8125 -0.171875q0.4375 0 0.828125 0.171875q0.390625 0.15625 0.671875 0.4375q0.28125 0.28125 0.453125 0.671875q0.171875 0.390625 0.171875 0.828125zm9.067566 3.765625q1.53125 0 2.78125 0.5q1.25 0.484375 2.125 1.390625q0.875 0.90625 1.359375 2.21875q0.484375 1.296875 0.484375 2.921875q0 1.625 -0.484375 2.9375q-0.484375 1.296875 -1.359375 2.21875q-0.875 0.921875 -2.125 1.421875q-1.25 0.484375 -2.78125 0.484375q-1.53125 0 -2.78125 -0.484375q-1.25 -0.5 -2.140625 -1.421875q-0.890625 -0.921875 -1.375 -2.21875q-0.484375 -1.3125 -0.484375 -2.9375q0 -1.625 0.484375 -2.921875q0.484375 -1.3125 1.375 -2.21875q0.890625 -0.90625 2.140625 -1.390625q1.25 -0.5 2.78125 -0.5zm0 11.5625q1.703125 0 2.515625 -1.140625q0.828125 -1.15625 0.828125 -3.375q0 -2.203125 -0.828125 -3.359375q-0.8125 -1.171875 -2.515625 -1.171875q-1.734375 0 -2.5625 1.171875q-0.8125 1.171875 -0.8125 3.359375q0 2.203125 0.8125 3.359375q0.828125 1.15625 2.5625 1.15625zm9.325928 2.328125l0 -13.671875l2.0 0q0.640625 0 0.84375 0.59375l0.234375 1.078125q0.40625 -0.421875 0.859375 -0.765625q0.46875 -0.34375 0.984375 -0.59375q0.515625 -0.265625 1.09375 -0.390625q0.59375 -0.140625 1.28125 -0.140625q1.125 0 1.984375 0.390625q0.875 0.375 1.453125 1.0625q0.578125 0.6875 0.875 1.640625q0.296875 0.953125 0.296875 2.09375l0 8.703125l-3.296875 0l0 -8.703125q0 -1.25 -0.578125 -1.9375q-0.578125 -0.6875 -1.734375 -0.6875q-0.859375 0 -1.609375 0.390625q-0.734375 0.375 -1.40625 1.046875l0 9.890625l-3.28125 0z" fill-rule="nonzero"/><path fill="#1a9988" d="m482.6904 127.95413q0 2.125 -0.71875 3.90625q-0.703125 1.765625 -1.984375 3.046875q-1.265625 1.28125 -3.078125 1.984375q-1.796875 0.703125 -3.984375 0.703125l-7.34375 0l0 -19.265625l7.34375 0q2.1875 0 3.984375 0.71875q1.8125 0.703125 3.078125 1.984375q1.28125 1.265625 1.984375 3.046875q0.71875 1.765625 0.71875 3.875zm-3.671875 0q0 -1.578125 -0.421875 -2.828125q-0.421875 -1.265625 -1.21875 -2.140625q-0.78125 -0.875 -1.90625 -1.34375q-1.125 -0.46875 -2.546875 -0.46875l-3.734375 0l0 13.5625l3.734375 0q1.421875 0 2.546875 -0.453125q1.125 -0.46875 1.90625 -1.34375q0.796875 -0.875 1.21875 -2.125q0.421875 -1.265625 0.421875 -2.859375zm10.191101 2.109375l0 7.53125l-3.59375 0l0 -19.265625l5.875 0q1.984375 0 3.390625 0.40625q1.40625 0.40625 2.296875 1.140625q0.90625 0.71875 1.328125 1.75q0.421875 1.015625 0.421875 2.234375q0 0.984375 -0.296875 1.859375q-0.28125 0.859375 -0.828125 1.5625q-0.53125 0.703125 -1.328125 1.234375q-0.796875 0.53125 -1.8125 0.859375q0.6875 0.375 1.171875 1.09375l4.828125 7.125l-3.21875 0q-0.46875 0 -0.796875 -0.1875q-0.328125 -0.1875 -0.546875 -0.53125l-4.0625 -6.171875q-0.21875 -0.34375 -0.5 -0.484375q-0.265625 -0.15625 -0.796875 -0.15625l-1.53125 0zm0 -2.578125l2.234375 0q1.015625 0 1.765625 -0.25q0.75 -0.25 1.234375 -0.6875q0.484375 -0.453125 0.71875 -1.0625q0.25 -0.625 0.25 -1.359375q0 -1.453125 -0.96875 -2.234375q-0.96875 -0.796875 -2.953125 -0.796875l-2.28125 0l0 6.390625zm26.351044 5.5625q0.296875 0 0.515625 0.234375l1.40625 1.53125q-1.171875 1.453125 -2.890625 2.234375q-1.703125 0.765625 -4.109375 0.765625q-2.140625 0 -3.859375 -0.734375q-1.703125 -0.734375 -2.921875 -2.03125q-1.203125 -1.3125 -1.859375 -3.125q-0.640625 -1.8125 -0.640625 -3.96875q0 -2.171875 0.71875 -3.96875q0.71875 -1.8125 2.015625 -3.109375q1.3125 -1.3125 3.125 -2.03125q1.828125 -0.734375 4.03125 -0.734375q2.140625 0 3.75 0.6875q1.609375 0.6875 2.75 1.8125l-1.203125 1.671875q-0.109375 0.15625 -0.28125 0.28125q-0.15625 0.109375 -0.453125 0.109375q-0.296875 0 -0.625 -0.234375q-0.3125 -0.234375 -0.8125 -0.515625q-0.484375 -0.28125 -1.25 -0.515625q-0.75 -0.25 -1.90625 -0.25q-1.359375 0 -2.5 0.484375q-1.140625 0.46875 -1.96875 1.34375q-0.8125 0.875 -1.28125 2.140625q-0.453125 1.265625 -0.453125 2.828125q0 1.625 0.453125 2.890625q0.46875 1.265625 1.25 2.140625q0.796875 0.859375 1.859375 1.328125q1.0625 0.453125 2.296875 0.453125q0.734375 0 1.328125 -0.078125q0.59375 -0.078125 1.09375 -0.25q0.5 -0.171875 0.9375 -0.4375q0.453125 -0.28125 0.890625 -0.6875q0.140625 -0.109375 0.28125 -0.1875q0.140625 -0.078125 0.3125 -0.078125z" fill-rule="nonzero"/><path fill="#ffffff" d="m788.0859 7.9790025l166.92914 0l0 144.0l-166.92914 0z" fill-rule="evenodd"/><path stroke="#eb5600" stroke-width="2.6666666666666665" stroke-linejoin="round" stroke-linecap="butt" d="m788.0859 7.9790025l166.92914 0l0 144.0l-166.92914 0z" fill-rule="evenodd"/><path fill="#eb5600" d="m830.5255 47.93838q0 2.125 -0.71875 3.9375q-0.703125 1.796875 -1.984375 3.125q-1.28125 1.3125 -3.078125 2.0625q-1.796875 0.734375 -3.984375 0.734375q-2.1875 0 -4.0 -0.734375q-1.796875 -0.75 -3.078125 -2.0625q-1.28125 -1.328125 -2.0 -3.125q-0.703125 -1.8125 -0.703125 -3.9375q0 -2.109375 0.703125 -3.921875q0.71875 -1.8125 2.0 -3.125q1.28125 -1.3125 3.078125 -2.046875q1.8125 -0.75 4.0 -0.75q2.1875 0 3.984375 0.75q1.796875 0.734375 3.078125 2.046875q1.28125 1.3125 1.984375 3.125q0.71875 1.8125 0.71875 3.921875zm-3.6875 0q0 -1.578125 -0.421875 -2.828125q-0.421875 -1.265625 -1.203125 -2.140625q-0.78125 -0.890625 -1.90625 -1.359375q-1.125 -0.46875 -2.546875 -0.46875q-1.40625 0 -2.546875 0.46875q-1.125 0.46875 -1.921875 1.359375q-0.796875 0.875 -1.21875 2.140625q-0.421875 1.25 -0.421875 2.828125q0 1.59375 0.421875 2.859375q0.421875 1.25 1.21875 2.125q0.796875 0.875 1.921875 1.34375q1.140625 0.453125 2.546875 0.453125q1.421875 0 2.546875 -0.453125q1.125 -0.46875 1.90625 -1.34375q0.78125 -0.875 1.203125 -2.125q0.421875 -1.265625 0.421875 -2.859375zm6.3272705 14.109375l0 -18.140625l2.0 0q0.328125 0 0.546875 0.15625q0.234375 0.140625 0.296875 0.4375l0.265625 1.265625q0.828125 -0.9375 1.890625 -1.515625q1.078125 -0.59375 2.53125 -0.59375q1.109375 0 2.03125 0.46875q0.9375 0.453125 1.609375 1.34375q0.671875 0.890625 1.03125 2.1875q0.375 1.296875 0.375 2.984375q0 1.53125 -0.421875 2.84375q-0.40625 1.296875 -1.171875 2.265625q-0.765625 0.953125 -1.859375 1.5q-1.078125 0.53125 -2.421875 0.53125q-1.171875 0 -1.984375 -0.34375q-0.796875 -0.359375 -1.4375 -1.0l0 5.609375l-3.28125 0zm6.390625 -15.796875q-1.03125 0 -1.765625 0.4375q-0.71875 0.421875 -1.34375 1.21875l0 6.125q0.5625 0.6875 1.21875 0.96875q0.671875 0.265625 1.421875 0.265625q0.75 0 1.359375 -0.265625q0.609375 -0.28125 1.015625 -0.859375q0.421875 -0.578125 0.640625 -1.4375q0.234375 -0.875 0.234375 -2.0625q0 -1.203125 -0.1875 -2.03125q-0.1875 -0.84375 -0.546875 -1.359375q-0.359375 -0.515625 -0.875 -0.75q-0.515625 -0.25 -1.171875 -0.25zm14.324036 -2.5625q1.296875 0 2.375 0.421875q1.09375 0.40625 1.875 1.203125q0.796875 0.796875 1.234375 1.953125q0.4375 1.140625 0.4375 2.625q0 0.375 -0.03125 0.625q-0.03125 0.234375 -0.125 0.375q-0.078125 0.140625 -0.234375 0.203125q-0.140625 0.0625 -0.375 0.0625l-8.4375 0q0.140625 2.109375 1.125 3.09375q0.984375 0.984375 2.609375 0.984375q0.796875 0 1.375 -0.1875q0.59375 -0.1875 1.015625 -0.40625q0.4375 -0.234375 0.765625 -0.421875q0.328125 -0.1875 0.640625 -0.1875q0.1875 0 0.328125 0.078125q0.15625 0.078125 0.265625 0.234375l0.953125 1.1875q-0.546875 0.640625 -1.234375 1.078125q-0.671875 0.4375 -1.40625 0.703125q-0.734375 0.25 -1.5 0.359375q-0.765625 0.109375 -1.484375 0.109375q-1.4375 0 -2.671875 -0.46875q-1.21875 -0.484375 -2.125 -1.40625q-0.90625 -0.921875 -1.421875 -2.28125q-0.515625 -1.375 -0.515625 -3.171875q0 -1.40625 0.453125 -2.640625q0.453125 -1.234375 1.296875 -2.140625q0.84375 -0.921875 2.0625 -1.453125q1.21875 -0.53125 2.75 -0.53125zm0.078125 2.359375q-1.453125 0 -2.265625 0.8125q-0.8125 0.8125 -1.03125 2.3125l6.1875 0q0 -0.640625 -0.1875 -1.203125q-0.171875 -0.578125 -0.53125 -1.0q-0.359375 -0.421875 -0.90625 -0.671875q-0.546875 -0.25 -1.265625 -0.25zm8.528931 11.53125l0 -13.671875l2.0 0q0.640625 0 0.84375 0.59375l0.234375 1.078125q0.40625 -0.421875 0.859375 -0.765625q0.46875 -0.34375 0.984375 -0.59375q0.515625 -0.265625 1.09375 -0.390625q0.59375 -0.140625 1.28125 -0.140625q1.125 0 1.984375 0.390625q0.875 0.375 1.453125 1.0625q0.578125 0.6875 0.875 1.640625q0.296875 0.953125 0.296875 2.09375l0 8.703125l-3.296875 0l0 -8.703125q0 -1.25 -0.578125 -1.9375q-0.578125 -0.6875 -1.734375 -0.6875q-0.859375 0 -1.609375 0.390625q-0.734375 0.375 -1.40625 1.046875l0 9.890625l-3.28125 0zm18.919678 -2.953125l7.71875 0l0 2.953125l-11.296875 0l0 -19.265625l3.578125 0l0 16.3125zm20.71875 2.953125l-1.46875 0q-0.46875 0 -0.734375 -0.140625q-0.265625 -0.140625 -0.40625 -0.5625l-0.296875 -0.96875q-0.515625 0.453125 -1.015625 0.8125q-0.5 0.359375 -1.03125 0.59375q-0.53125 0.234375 -1.140625 0.359375q-0.59375 0.125 -1.328125 0.125q-0.859375 0 -1.59375 -0.234375q-0.734375 -0.234375 -1.265625 -0.703125q-0.515625 -0.46875 -0.8125 -1.15625q-0.296875 -0.703125 -0.296875 -1.609375q0 -0.78125 0.40625 -1.53125q0.40625 -0.75 1.34375 -1.359375q0.953125 -0.609375 2.53125 -1.0q1.578125 -0.40625 3.90625 -0.46875l0 -0.796875q0 -1.375 -0.578125 -2.03125q-0.578125 -0.65625 -1.6875 -0.65625q-0.796875 0 -1.34375 0.1875q-0.53125 0.1875 -0.921875 0.421875q-0.390625 0.234375 -0.734375 0.421875q-0.328125 0.1875 -0.71875 0.1875q-0.328125 0 -0.578125 -0.171875q-0.234375 -0.1875 -0.390625 -0.4375l-0.59375 -1.046875q2.359375 -2.15625 5.6875 -2.15625q1.203125 0 2.140625 0.390625q0.9375 0.390625 1.59375 1.09375q0.65625 0.703125 0.984375 1.671875q0.34375 0.96875 0.34375 2.125l0 8.640625zm-6.390625 -2.046875q0.5 0 0.921875 -0.09375q0.4375 -0.09375 0.8125 -0.28125q0.390625 -0.1875 0.734375 -0.453125q0.359375 -0.28125 0.71875 -0.65625l0 -2.3125q-1.4375 0.078125 -2.40625 0.265625q-0.96875 0.171875 -1.5625 0.453125q-0.578125 0.28125 -0.828125 0.65625q-0.25 0.359375 -0.25 0.796875q0 0.875 0.515625 1.25q0.515625 0.375 1.34375 0.375zm9.641968 2.046875l0 -13.671875l2.0 0q0.640625 0 0.84375 0.59375l0.234375 1.078125q0.40625 -0.421875 0.859375 -0.765625q0.46875 -0.34375 0.984375 -0.59375q0.515625 -0.265625 1.09375 -0.390625q0.59375 -0.140625 1.28125 -0.140625q1.125 0 1.984375 0.390625q0.875 0.375 1.453125 1.0625q0.578125 0.6875 0.875 1.640625q0.296875 0.953125 0.296875 2.09375l0 8.703125l-3.296875 0l0 -8.703125q0 -1.25 -0.578125 -1.9375q-0.578125 -0.6875 -1.734375 -0.6875q-0.859375 0 -1.609375 0.390625q-0.734375 0.375 -1.40625 1.046875l0 9.890625l-3.28125 0zm20.794678 -13.890625q1.296875 0 2.375 0.421875q1.09375 0.40625 1.875 1.203125q0.796875 0.796875 1.234375 1.953125q0.4375 1.140625 0.4375 2.625q0 0.375 -0.03125 0.625q-0.03125 0.234375 -0.125 0.375q-0.078125 0.140625 -0.234375 0.203125q-0.140625 0.0625 -0.375 0.0625l-8.4375 0q0.140625 2.109375 1.125 3.09375q0.984375 0.984375 2.609375 0.984375q0.796875 0 1.375 -0.1875q0.59375 -0.1875 1.015625 -0.40625q0.4375 -0.234375 0.765625 -0.421875q0.328125 -0.1875 0.640625 -0.1875q0.1875 0 0.328125 0.078125q0.15625 0.078125 0.265625 0.234375l0.953125 1.1875q-0.546875 0.640625 -1.234375 1.078125q-0.671875 0.4375 -1.40625 0.703125q-0.734375 0.25 -1.5 0.359375q-0.765625 0.109375 -1.484375 0.109375q-1.4375 0 -2.671875 -0.46875q-1.21875 -0.484375 -2.125 -1.40625q-0.90625 -0.921875 -1.421875 -2.28125q-0.515625 -1.375 -0.515625 -3.171875q0 -1.40625 0.453125 -2.640625q0.453125 -1.234375 1.296875 -2.140625q0.84375 -0.921875 2.0625 -1.453125q1.21875 -0.53125 2.75 -0.53125zm0.078125 2.359375q-1.453125 0 -2.265625 0.8125q-0.8125 0.8125 -1.03125 2.3125l6.1875 0q0 -0.640625 -0.1875 -1.203125q-0.171875 -0.578125 -0.53125 -1.0q-0.359375 -0.421875 -0.90625 -0.671875q-0.546875 -0.25 -1.265625 -0.25z" fill-rule="nonzero"/><path fill="#1a9988" d="m818.3449 85.03213q0.296875 0 0.515625 0.234375l1.40625 1.53125q-1.171875 1.453125 -2.890625 2.234375q-1.703125 0.765625 -4.109375 0.765625q-2.140625 0 -3.859375 -0.734375q-1.703125 -0.734375 -2.921875 -2.03125q-1.203125 -1.3125 -1.859375 -3.125q-0.640625 -1.8125 -0.640625 -3.96875q0 -2.171875 0.71875 -3.96875q0.71875 -1.8125 2.015625 -3.109375q1.3125 -1.3125 3.125 -2.03125q1.828125 -0.734375 4.03125 -0.734375q2.140625 0 3.75 0.6875q1.609375 0.6875 2.75 1.8125l-1.203125 1.671875q-0.109375 0.15625 -0.28125 0.28125q-0.15625 0.109375 -0.453125 0.109375q-0.296875 0 -0.625 -0.234375q-0.3125 -0.234375 -0.8125 -0.515625q-0.484375 -0.28125 -1.25 -0.515625q-0.75 -0.25 -1.90625 -0.25q-1.359375 0 -2.5 0.484375q-1.140625 0.46875 -1.96875 1.34375q-0.8125 0.875 -1.28125 2.140625q-0.453125 1.265625 -0.453125 2.828125q0 1.625 0.453125 2.890625q0.46875 1.265625 1.25 2.140625q0.796875 0.859375 1.859375 1.328125q1.0625 0.453125 2.296875 0.453125q0.734375 0 1.328125 -0.078125q0.59375 -0.078125 1.09375 -0.25q0.5 -0.171875 0.9375 -0.4375q0.453125 -0.28125 0.890625 -0.6875q0.140625 -0.109375 0.28125 -0.1875q0.140625 -0.078125 0.3125 -0.078125zm10.279236 -9.34375q1.53125 0 2.78125 0.5q1.25 0.484375 2.125 1.390625q0.875 0.90625 1.359375 2.21875q0.484375 1.296875 0.484375 2.921875q0 1.625 -0.484375 2.9375q-0.484375 1.296875 -1.359375 2.21875q-0.875 0.921875 -2.125 1.421875q-1.25 0.484375 -2.78125 0.484375q-1.53125 0 -2.78125 -0.484375q-1.25 -0.5 -2.140625 -1.421875q-0.890625 -0.921875 -1.375 -2.21875q-0.484375 -1.3125 -0.484375 -2.9375q0 -1.625 0.484375 -2.921875q0.484375 -1.3125 1.375 -2.21875q0.890625 -0.90625 2.140625 -1.390625q1.25 -0.5 2.78125 -0.5zm0 11.5625q1.703125 0 2.515625 -1.140625q0.828125 -1.15625 0.828125 -3.375q0 -2.203125 -0.828125 -3.359375q-0.8125 -1.171875 -2.515625 -1.171875q-1.734375 0 -2.5625 1.171875q-0.8125 1.171875 -0.8125 3.359375q0 2.203125 0.8125 3.359375q0.828125 1.15625 2.5625 1.15625zm9.325867 2.328125l0 -13.671875l2.0 0q0.640625 0 0.84375 0.59375l0.234375 1.078125q0.40625 -0.421875 0.859375 -0.765625q0.46875 -0.34375 0.984375 -0.59375q0.515625 -0.265625 1.09375 -0.390625q0.59375 -0.140625 1.28125 -0.140625q1.125 0 1.984375 0.390625q0.875 0.375 1.453125 1.0625q0.578125 0.6875 0.875 1.640625q0.296875 0.953125 0.296875 2.09375l0 8.703125l-3.296875 0l0 -8.703125q0 -1.25 -0.578125 -1.9375q-0.578125 -0.6875 -1.734375 -0.6875q-0.859375 0 -1.609375 0.390625q-0.734375 0.375 -1.40625 1.046875l0 9.890625l-3.28125 0zm15.154053 0l0 -13.671875l2.0 0q0.640625 0 0.84375 0.59375l0.234375 1.078125q0.40625 -0.421875 0.859375 -0.765625q0.46875 -0.34375 0.984375 -0.59375q0.515625 -0.265625 1.09375 -0.390625q0.59375 -0.140625 1.28125 -0.140625q1.125 0 1.984375 0.390625q0.875 0.375 1.453125 1.0625q0.578125 0.6875 0.875 1.640625q0.296875 0.953125 0.296875 2.09375l0 8.703125l-3.296875 0l0 -8.703125q0 -1.25 -0.578125 -1.9375q-0.578125 -0.6875 -1.734375 -0.6875q-0.859375 0 -1.609375 0.390625q-0.734375 0.375 -1.40625 1.046875l0 9.890625l-3.28125 0zm20.794617 -13.890625q1.296875 0 2.375 0.421875q1.09375 0.40625 1.875 1.203125q0.796875 0.796875 1.234375 1.953125q0.4375 1.140625 0.4375 2.625q0 0.375 -0.03125 0.625q-0.03125 0.234375 -0.125 0.375q-0.078125 0.140625 -0.234375 0.203125q-0.140625 0.0625 -0.375 0.0625l-8.4375 0q0.140625 2.109375 1.125 3.09375q0.984375 0.984375 2.609375 0.984375q0.796875 0 1.375 -0.1875q0.59375 -0.1875 1.015625 -0.40625q0.4375 -0.234375 0.765625 -0.421875q0.328125 -0.1875 0.640625 -0.1875q0.1875 0 0.328125 0.078125q0.15625 0.078125 0.265625 0.234375l0.953125 1.1875q-0.546875 0.640625 -1.234375 1.078125q-0.671875 0.4375 -1.40625 0.703125q-0.734375 0.25 -1.5 0.359375q-0.765625 0.109375 -1.484375 0.109375q-1.4375 0 -2.671875 -0.46875q-1.21875 -0.484375 -2.125 -1.40625q-0.90625 -0.921875 -1.421875 -2.28125q-0.515625 -1.375 -0.515625 -3.171875q0 -1.40625 0.453125 -2.640625q0.453125 -1.234375 1.296875 -2.140625q0.84375 -0.921875 2.0625 -1.453125q1.21875 -0.53125 2.75 -0.53125zm0.078125 2.359375q-1.453125 0 -2.265625 0.8125q-0.8125 0.8125 -1.03125 2.3125l6.1875 0q0 -0.640625 -0.1875 -1.203125q-0.171875 -0.578125 -0.53125 -1.0q-0.359375 -0.421875 -0.90625 -0.671875q-0.546875 -0.25 -1.265625 -0.25zm18.138367 0.75q-0.15625 0.1875 -0.296875 0.296875q-0.140625 0.109375 -0.40625 0.109375q-0.25 0 -0.5 -0.15625q-0.234375 -0.15625 -0.5625 -0.34375q-0.328125 -0.203125 -0.796875 -0.34375q-0.453125 -0.15625 -1.140625 -0.15625q-0.859375 0 -1.515625 0.3125q-0.65625 0.3125 -1.09375 0.90625q-0.421875 0.578125 -0.640625 1.40625q-0.203125 0.828125 -0.203125 1.890625q0 1.09375 0.21875 1.953125q0.234375 0.84375 0.671875 1.421875q0.453125 0.578125 1.078125 0.875q0.625 0.296875 1.40625 0.296875q0.796875 0 1.28125 -0.1875q0.484375 -0.1875 0.8125 -0.421875q0.328125 -0.234375 0.578125 -0.421875q0.25 -0.203125 0.5625 -0.203125q0.390625 0 0.59375 0.3125l0.953125 1.1875q-0.546875 0.640625 -1.1875 1.078125q-0.640625 0.4375 -1.328125 0.703125q-0.6875 0.25 -1.421875 0.359375q-0.734375 0.109375 -1.453125 0.109375q-1.265625 0 -2.390625 -0.46875q-1.109375 -0.484375 -1.953125 -1.390625q-0.828125 -0.90625 -1.3125 -2.21875q-0.484375 -1.3125 -0.484375 -2.984375q0 -1.515625 0.421875 -2.796875q0.4375 -1.28125 1.28125 -2.21875q0.84375 -0.953125 2.078125 -1.484375q1.234375 -0.53125 2.859375 -0.53125q1.53125 0 2.671875 0.5q1.15625 0.484375 2.078125 1.40625l-0.859375 1.203125zm7.589966 11.0q-1.765625 0 -2.734375 -1.0q-0.953125 -1.015625 -0.953125 -2.796875l0 -7.625l-1.390625 0q-0.265625 0 -0.46875 -0.171875q-0.1875 -0.1875 -0.1875 -0.53125l0 -1.296875l2.203125 -0.359375l0.6875 -3.734375q0.0625 -0.265625 0.25 -0.40625q0.203125 -0.15625 0.484375 -0.15625l1.703125 0l0 4.3125l3.609375 0l0 2.34375l-3.609375 0l0 7.40625q0 0.640625 0.3125 1.0q0.328125 0.359375 0.875 0.359375q0.296875 0 0.5 -0.0625q0.21875 -0.078125 0.359375 -0.15625q0.15625 -0.09375 0.28125 -0.15625q0.125 -0.078125 0.234375 -0.078125q0.15625 0 0.25 0.078125q0.09375 0.0625 0.1875 0.21875l1.0 1.59375q-0.734375 0.59375 -1.671875 0.90625q-0.921875 0.3125 -1.921875 0.3125zm9.331543 -13.890625l0 13.671875l-3.296875 0l0 -13.671875l3.296875 0zm0.484375 -3.984375q0 0.421875 -0.171875 0.796875q-0.171875 0.375 -0.453125 0.65625q-0.28125 0.28125 -0.671875 0.453125q-0.390625 0.15625 -0.828125 0.15625q-0.421875 0 -0.8125 -0.15625q-0.375 -0.171875 -0.65625 -0.453125q-0.28125 -0.28125 -0.453125 -0.65625q-0.15625 -0.375 -0.15625 -0.796875q0 -0.4375 0.15625 -0.828125q0.171875 -0.390625 0.453125 -0.671875q0.28125 -0.28125 0.65625 -0.4375q0.390625 -0.171875 0.8125 -0.171875q0.4375 0 0.828125 0.171875q0.390625 0.15625 0.671875 0.4375q0.28125 0.28125 0.453125 0.671875q0.171875 0.390625 0.171875 0.828125zm3.239441 17.65625l0 -13.671875l2.0 0q0.640625 0 0.84375 0.59375l0.234375 1.078125q0.40625 -0.421875 0.859375 -0.765625q0.46875 -0.34375 0.984375 -0.59375q0.515625 -0.265625 1.09375 -0.390625q0.59375 -0.140625 1.28125 -0.140625q1.125 0 1.984375 0.390625q0.875 0.375 1.453125 1.0625q0.578125 0.6875 0.875 1.640625q0.296875 0.953125 0.296875 2.09375l0 8.703125l-3.296875 0l0 -8.703125q0 -1.25 -0.578125 -1.9375q-0.578125 -0.6875 -1.734375 -0.6875q-0.859375 0 -1.609375 0.390625q-0.734375 0.375 -1.40625 1.046875l0 9.890625l-3.28125 0zm19.872803 -13.921875q0.890625 0 1.65625 0.1875q0.78125 0.1875 1.421875 0.53125l3.921875 0l0 1.21875q0 0.3125 -0.15625 0.484375q-0.15625 0.171875 -0.546875 0.234375l-1.21875 0.234375q0.125 0.34375 0.1875 0.734375q0.078125 0.375 0.078125 0.8125q0 1.0 -0.40625 1.828125q-0.40625 0.8125 -1.125 1.390625q-0.703125 0.578125 -1.6875 0.890625q-0.96875 0.3125 -2.125 0.3125q-0.765625 0 -1.5 -0.15625q-0.640625 0.390625 -0.640625 0.875q0 0.40625 0.375 0.609375q0.390625 0.1875 1.0 0.265625q0.625 0.078125 1.40625 0.109375q0.796875 0.015625 1.609375 0.078125q0.828125 0.0625 1.609375 0.234375q0.796875 0.171875 1.40625 0.53125q0.625 0.359375 1.0 0.984375q0.390625 0.609375 0.390625 1.578125q0 0.90625 -0.453125 1.765625q-0.4375 0.859375 -1.28125 1.515625q-0.84375 0.671875 -2.078125 1.078125q-1.21875 0.40625 -2.796875 0.40625q-1.5625 0 -2.71875 -0.296875q-1.140625 -0.296875 -1.890625 -0.796875q-0.75 -0.5 -1.125 -1.15625q-0.375 -0.65625 -0.375 -1.359375q0 -0.96875 0.578125 -1.609375q0.59375 -0.65625 1.640625 -1.046875q-0.515625 -0.28125 -0.828125 -0.75q-0.296875 -0.46875 -0.296875 -1.203125q0 -0.3125 0.109375 -0.640625q0.109375 -0.328125 0.328125 -0.640625q0.21875 -0.328125 0.546875 -0.609375q0.34375 -0.28125 0.796875 -0.515625q-1.046875 -0.5625 -1.640625 -1.484375q-0.59375 -0.9375 -0.59375 -2.1875q0 -1.015625 0.40625 -1.828125q0.40625 -0.828125 1.125 -1.40625q0.734375 -0.578125 1.71875 -0.890625q1.0 -0.3125 2.171875 -0.3125zm3.625 14.53125q0 -0.390625 -0.25 -0.640625q-0.234375 -0.265625 -0.65625 -0.40625q-0.40625 -0.140625 -0.96875 -0.203125q-0.546875 -0.0625 -1.171875 -0.09375q-0.609375 -0.03125 -1.28125 -0.0625q-0.65625 -0.046875 -1.265625 -0.125q-0.5625 0.3125 -0.90625 0.734375q-0.328125 0.421875 -0.328125 0.953125q0 0.375 0.171875 0.6875q0.1875 0.3125 0.578125 0.53125q0.390625 0.234375 1.015625 0.359375q0.625 0.125 1.53125 0.125q0.921875 0 1.59375 -0.140625q0.671875 -0.140625 1.09375 -0.390625q0.4375 -0.25 0.640625 -0.59375q0.203125 -0.328125 0.203125 -0.734375zm-3.625 -7.78125q0.625 0 1.078125 -0.15625q0.453125 -0.171875 0.75 -0.46875q0.296875 -0.296875 0.453125 -0.703125q0.15625 -0.421875 0.15625 -0.90625q0 -1.015625 -0.609375 -1.609375q-0.609375 -0.59375 -1.828125 -0.59375q-1.203125 0 -1.8125 0.59375q-0.609375 0.59375 -0.609375 1.609375q0 0.46875 0.15625 0.890625q0.15625 0.40625 0.453125 0.71875q0.296875 0.296875 0.75 0.46875q0.46875 0.15625 1.0625 0.15625z" fill-rule="nonzero"/><path fill="#1a9988" d="m816.1448 121.79775q-1.765625 0 -2.734375 -1.0q-0.953125 -1.015625 -0.953125 -2.796875l0 -7.625l-1.390625 0q-0.265625 0 -0.46875 -0.171875q-0.1875 -0.1875 -0.1875 -0.53125l0 -1.296875l2.203125 -0.359375l0.6875 -3.734375q0.0625 -0.265625 0.25 -0.40625q0.203125 -0.15625 0.484375 -0.15625l1.703125 0l0 4.3125l3.609375 0l0 2.34375l-3.609375 0l0 7.40625q0 0.640625 0.3125 1.0q0.328125 0.359375 0.875 0.359375q0.296875 0 0.5 -0.0625q0.21875 -0.078125 0.359375 -0.15625q0.15625 -0.09375 0.28125 -0.15625q0.125 -0.078125 0.234375 -0.078125q0.15625 0 0.25 0.078125q0.09375 0.0625 0.1875 0.21875l1.0 1.59375q-0.734375 0.59375 -1.671875 0.90625q-0.921875 0.3125 -1.921875 0.3125zm11.659668 -14.109375q1.53125 0 2.78125 0.5q1.25 0.484375 2.125 1.390625q0.875 0.90625 1.359375 2.21875q0.484375 1.296875 0.484375 2.921875q0 1.625 -0.484375 2.9375q-0.484375 1.296875 -1.359375 2.21875q-0.875 0.921875 -2.125 1.421875q-1.25 0.484375 -2.78125 0.484375q-1.53125 0 -2.78125 -0.484375q-1.25 -0.5 -2.140625 -1.421875q-0.890625 -0.921875 -1.375 -2.21875q-0.484375 -1.3125 -0.484375 -2.9375q0 -1.625 0.484375 -2.921875q0.484375 -1.3125 1.375 -2.21875q0.890625 -0.90625 2.140625 -1.390625q1.25 -0.5 2.78125 -0.5zm0 11.5625q1.703125 0 2.515625 -1.140625q0.828125 -1.15625 0.828125 -3.375q0 -2.203125 -0.828125 -3.359375q-0.8125 -1.171875 -2.515625 -1.171875q-1.734375 0 -2.5625 1.171875q-0.8125 1.171875 -0.8125 3.359375q0 2.203125 0.8125 3.359375q0.828125 1.15625 2.5625 1.15625zm14.47052 2.328125l0 -19.8125l3.28125 0l0 7.625q0.796875 -0.765625 1.75 -1.234375q0.96875 -0.46875 2.265625 -0.46875q1.125 0 1.984375 0.390625q0.875 0.375 1.453125 1.0625q0.578125 0.6875 0.875 1.640625q0.296875 0.953125 0.296875 2.09375l0 8.703125l-3.296875 0l0 -8.703125q0 -1.25 -0.578125 -1.9375q-0.578125 -0.6875 -1.734375 -0.6875q-0.859375 0 -1.609375 0.390625q-0.734375 0.375 -1.40625 1.046875l0 9.890625l-3.28125 0zm25.857178 0l-1.46875 0q-0.46875 0 -0.734375 -0.140625q-0.265625 -0.140625 -0.40625 -0.5625l-0.296875 -0.96875q-0.515625 0.453125 -1.015625 0.8125q-0.5 0.359375 -1.03125 0.59375q-0.53125 0.234375 -1.140625 0.359375q-0.59375 0.125 -1.328125 0.125q-0.859375 0 -1.59375 -0.234375q-0.734375 -0.234375 -1.265625 -0.703125q-0.515625 -0.46875 -0.8125 -1.15625q-0.296875 -0.703125 -0.296875 -1.609375q0 -0.78125 0.40625 -1.53125q0.40625 -0.75 1.34375 -1.359375q0.953125 -0.609375 2.53125 -1.0q1.578125 -0.40625 3.90625 -0.46875l0 -0.796875q0 -1.375 -0.578125 -2.03125q-0.578125 -0.65625 -1.6875 -0.65625q-0.796875 0 -1.34375 0.1875q-0.53125 0.1875 -0.921875 0.421875q-0.390625 0.234375 -0.734375 0.421875q-0.328125 0.1875 -0.71875 0.1875q-0.328125 0 -0.578125 -0.171875q-0.234375 -0.1875 -0.390625 -0.4375l-0.59375 -1.046875q2.359375 -2.15625 5.6875 -2.15625q1.203125 0 2.140625 0.390625q0.9375 0.390625 1.59375 1.09375q0.65625 0.703125 0.984375 1.671875q0.34375 0.96875 0.34375 2.125l0 8.640625zm-6.390625 -2.046875q0.5 0 0.921875 -0.09375q0.4375 -0.09375 0.8125 -0.28125q0.390625 -0.1875 0.734375 -0.453125q0.359375 -0.28125 0.71875 -0.65625l0 -2.3125q-1.4375 0.078125 -2.40625 0.265625q-0.96875 0.171875 -1.5625 0.453125q-0.578125 0.28125 -0.828125 0.65625q-0.25 0.359375 -0.25 0.796875q0 0.875 0.515625 1.25q0.515625 0.375 1.34375 0.375zm9.641968 2.046875l0 -13.671875l1.921875 0q0.515625 0 0.703125 0.1875q0.203125 0.1875 0.28125 0.640625l0.1875 1.640625q0.734375 -1.265625 1.71875 -1.984375q1.0 -0.734375 2.21875 -0.734375q1.015625 0 1.671875 0.453125l-0.421875 2.46875q-0.03125 0.25 -0.171875 0.34375q-0.125 0.09375 -0.359375 0.09375q-0.203125 0 -0.546875 -0.09375q-0.34375 -0.09375 -0.921875 -0.09375q-1.015625 0 -1.75 0.578125q-0.734375 0.5625 -1.25 1.65625l0 8.515625l-3.28125 0zm10.889038 0l0 -13.671875l2.0 0q0.640625 0 0.84375 0.59375l0.234375 1.078125q0.40625 -0.421875 0.859375 -0.765625q0.46875 -0.34375 0.984375 -0.59375q0.515625 -0.265625 1.09375 -0.390625q0.59375 -0.140625 1.28125 -0.140625q1.125 0 1.984375 0.390625q0.875 0.375 1.453125 1.0625q0.578125 0.6875 0.875 1.640625q0.296875 0.953125 0.296875 2.09375l0 8.703125l-3.296875 0l0 -8.703125q0 -1.25 -0.578125 -1.9375q-0.578125 -0.6875 -1.734375 -0.6875q-0.859375 0 -1.609375 0.390625q-0.734375 0.375 -1.40625 1.046875l0 9.890625l-3.28125 0zm20.794678 -13.890625q1.296875 0 2.375 0.421875q1.09375 0.40625 1.875 1.203125q0.796875 0.796875 1.234375 1.953125q0.4375 1.140625 0.4375 2.625q0 0.375 -0.03125 0.625q-0.03125 0.234375 -0.125 0.375q-0.078125 0.140625 -0.234375 0.203125q-0.140625 0.0625 -0.375 0.0625l-8.4375 0q0.140625 2.109375 1.125 3.09375q0.984375 0.984375 2.609375 0.984375q0.796875 0 1.375 -0.1875q0.59375 -0.1875 1.015625 -0.40625q0.4375 -0.234375 0.765625 -0.421875q0.328125 -0.1875 0.640625 -0.1875q0.1875 0 0.328125 0.078125q0.15625 0.078125 0.265625 0.234375l0.953125 1.1875q-0.546875 0.640625 -1.234375 1.078125q-0.671875 0.4375 -1.40625 0.703125q-0.734375 0.25 -1.5 0.359375q-0.765625 0.109375 -1.484375 0.109375q-1.4375 0 -2.671875 -0.46875q-1.21875 -0.484375 -2.125 -1.40625q-0.90625 -0.921875 -1.421875 -2.28125q-0.515625 -1.375 -0.515625 -3.171875q0 -1.40625 0.453125 -2.640625q0.453125 -1.234375 1.296875 -2.140625q0.84375 -0.921875 2.0625 -1.453125q1.21875 -0.53125 2.75 -0.53125zm0.078125 2.359375q-1.453125 0 -2.265625 0.8125q-0.8125 0.8125 -1.03125 2.3125l6.1875 0q0 -0.640625 -0.1875 -1.203125q-0.171875 -0.578125 -0.53125 -1.0q-0.359375 -0.421875 -0.90625 -0.671875q-0.546875 -0.25 -1.265625 -0.25zm16.638306 0.515625q-0.125 0.21875 -0.28125 0.3125q-0.140625 0.078125 -0.375 0.078125q-0.234375 0 -0.515625 -0.125q-0.265625 -0.140625 -0.625 -0.296875q-0.359375 -0.171875 -0.828125 -0.296875q-0.453125 -0.140625 -1.078125 -0.140625q-0.96875 0 -1.53125 0.421875q-0.5625 0.40625 -0.5625 1.0625q0 0.4375 0.28125 0.75q0.296875 0.296875 0.765625 0.53125q0.46875 0.21875 1.0625 0.40625q0.609375 0.171875 1.234375 0.390625q0.625 0.203125 1.21875 0.484375q0.609375 0.265625 1.078125 0.6875q0.484375 0.421875 0.765625 1.015625q0.28125 0.578125 0.28125 1.40625q0 0.984375 -0.359375 1.828125q-0.359375 0.828125 -1.0625 1.4375q-0.6875 0.59375 -1.703125 0.9375q-1.015625 0.34375 -2.34375 0.34375q-0.703125 0 -1.375 -0.140625q-0.671875 -0.125 -1.296875 -0.34375q-0.609375 -0.234375 -1.140625 -0.53125q-0.53125 -0.3125 -0.921875 -0.671875l0.75 -1.25q0.15625 -0.234375 0.34375 -0.34375q0.203125 -0.125 0.515625 -0.125q0.3125 0 0.578125 0.171875q0.28125 0.171875 0.640625 0.375q0.359375 0.203125 0.84375 0.375q0.484375 0.171875 1.234375 0.171875q0.578125 0 1.0 -0.140625q0.421875 -0.140625 0.6875 -0.359375q0.28125 -0.234375 0.40625 -0.53125q0.125 -0.296875 0.125 -0.625q0 -0.46875 -0.28125 -0.78125q-0.28125 -0.3125 -0.765625 -0.53125q-0.46875 -0.234375 -1.078125 -0.40625q-0.609375 -0.1875 -1.25 -0.390625q-0.625 -0.21875 -1.234375 -0.5q-0.59375 -0.296875 -1.078125 -0.734375q-0.46875 -0.4375 -0.765625 -1.078125q-0.28125 -0.640625 -0.28125 -1.546875q0 -0.84375 0.328125 -1.59375q0.34375 -0.765625 0.984375 -1.328125q0.65625 -0.5625 1.609375 -0.90625q0.96875 -0.34375 2.25 -0.34375q1.40625 0 2.5625 0.46875q1.15625 0.46875 1.9375 1.234375l-0.75 1.171875zm11.648743 0q-0.125 0.21875 -0.28125 0.3125q-0.140625 0.078125 -0.375 0.078125q-0.234375 0 -0.515625 -0.125q-0.265625 -0.140625 -0.625 -0.296875q-0.359375 -0.171875 -0.828125 -0.296875q-0.453125 -0.140625 -1.078125 -0.140625q-0.96875 0 -1.53125 0.421875q-0.5625 0.40625 -0.5625 1.0625q0 0.4375 0.28125 0.75q0.296875 0.296875 0.765625 0.53125q0.46875 0.21875 1.0625 0.40625q0.609375 0.171875 1.234375 0.390625q0.625 0.203125 1.21875 0.484375q0.609375 0.265625 1.078125 0.6875q0.484375 0.421875 0.765625 1.015625q0.28125 0.578125 0.28125 1.40625q0 0.984375 -0.359375 1.828125q-0.359375 0.828125 -1.0625 1.4375q-0.6875 0.59375 -1.703125 0.9375q-1.015625 0.34375 -2.34375 0.34375q-0.703125 0 -1.375 -0.140625q-0.671875 -0.125 -1.296875 -0.34375q-0.609375 -0.234375 -1.140625 -0.53125q-0.53125 -0.3125 -0.921875 -0.671875l0.75 -1.25q0.15625 -0.234375 0.34375 -0.34375q0.203125 -0.125 0.515625 -0.125q0.3125 0 0.578125 0.171875q0.28125 0.171875 0.640625 0.375q0.359375 0.203125 0.84375 0.375q0.484375 0.171875 1.234375 0.171875q0.578125 0 1.0 -0.140625q0.421875 -0.140625 0.6875 -0.359375q0.28125 -0.234375 0.40625 -0.53125q0.125 -0.296875 0.125 -0.625q0 -0.46875 -0.28125 -0.78125q-0.28125 -0.3125 -0.765625 -0.53125q-0.46875 -0.234375 -1.078125 -0.40625q-0.609375 -0.1875 -1.25 -0.390625q-0.625 -0.21875 -1.234375 -0.5q-0.59375 -0.296875 -1.078125 -0.734375q-0.46875 -0.4375 -0.765625 -1.078125q-0.28125 -0.640625 -0.28125 -1.546875q0 -0.84375 0.328125 -1.59375q0.34375 -0.765625 0.984375 -1.328125q0.65625 -0.5625 1.609375 -0.90625q0.96875 -0.34375 2.25 -0.34375q1.40625 0 2.5625 0.46875q1.15625 0.46875 1.9375 1.234375l-0.75 1.171875z" fill-rule="nonzero"/><path fill="#000000" fill-opacity="0.0" d="m160.84325 79.979004l49.826767 0" fill-rule="evenodd"/><path stroke="#565656" stroke-width="4.0" stroke-linejoin="round" stroke-linecap="butt" d="m160.84325 79.979004l25.826782 0" fill-rule="evenodd"/><path fill="#565656" stroke="#565656" stroke-width="4.0" stroke-linecap="butt" d="m186.67003 86.58593l18.15239 -6.606926l-18.15239 -6.6069336z" fill-rule="evenodd"/><path fill="#000000" fill-opacity="0.0" d="m364.29172 79.979004l49.82675 0.03149414" fill-rule="evenodd"/><path stroke="#565656" stroke-width="4.0" stroke-linejoin="round" stroke-linecap="butt" d="m364.29172 79.979004l25.826752 0.016326904" fill-rule="evenodd"/><path fill="#565656" stroke="#565656" stroke-width="4.0" stroke-linecap="butt" d="m390.11432 86.60226l18.156555 -6.5954514l-18.148224 -6.618408z" fill-rule="evenodd"/><path fill="#000000" fill-opacity="0.0" d="m567.7402 79.99475l49.826782 0" fill-rule="evenodd"/><path stroke="#565656" stroke-width="4.0" stroke-linejoin="round" stroke-linecap="butt" d="m567.7402 79.99475l25.826782 0" fill-rule="evenodd"/><path fill="#565656" stroke="#565656" stroke-width="4.0" stroke-linecap="butt" d="m593.56696 86.60168l18.152344 -6.606926l-18.152344 -6.6069336z" fill-rule="evenodd"/><path fill="#000000" fill-opacity="0.0" d="m738.2437 79.979004l49.826782 0" fill-rule="evenodd"/><path stroke="#565656" stroke-width="4.0" stroke-linejoin="round" stroke-linecap="butt" d="m738.2438 79.979004l25.826782 0" fill-rule="evenodd"/><path fill="#565656" stroke="#565656" stroke-width="4.0" stroke-linecap="butt" d="m764.07056 86.58593l18.152344 -6.606926l-18.152344 -6.6069336z" fill-rule="evenodd"/><path fill="#ffffff" d="m617.58234 7.9790025l120.66138 0l0 144.0l-120.66138 0z" fill-rule="evenodd"/><path stroke="#eb5600" stroke-width="2.6666666666666665" stroke-linejoin="round" stroke-linecap="butt" d="m617.58234 7.9790025l120.66138 0l0 144.0l-120.66138 0z" fill-rule="evenodd"/><path fill="#eb5600" d="m638.2217 73.579l0 -13.671875l2.0 0q0.640625 0 0.84375 0.59375l0.234375 1.078125q0.40625 -0.421875 0.859375 -0.765625q0.46875 -0.34375 0.984375 -0.59375q0.515625 -0.265625 1.09375 -0.390625q0.59375 -0.140625 1.28125 -0.140625q1.125 0 1.984375 0.390625q0.875 0.375 1.453125 1.0625q0.578125 0.6875 0.875 1.640625q0.296875 0.953125 0.296875 2.09375l0 8.703125l-3.296875 0l0 -8.703125q0 -1.25 -0.578125 -1.9375q-0.578125 -0.6875 -1.734375 -0.6875q-0.859375 0 -1.609375 0.390625q-0.734375 0.375 -1.40625 1.046875l0 9.890625l-3.28125 0zm20.794617 -13.890625q1.296875 0 2.375 0.421875q1.09375 0.40625 1.875 1.203125q0.796875 0.796875 1.234375 1.953125q0.4375 1.140625 0.4375 2.625q0 0.375 -0.03125 0.625q-0.03125 0.234375 -0.125 0.375q-0.078125 0.140625 -0.234375 0.203125q-0.140625 0.0625 -0.375 0.0625l-8.4375 0q0.140625 2.109375 1.125 3.09375q0.984375 0.984375 2.609375 0.984375q0.796875 0 1.375 -0.1875q0.59375 -0.1875 1.015625 -0.40625q0.4375 -0.234375 0.765625 -0.421875q0.328125 -0.1875 0.640625 -0.1875q0.1875 0 0.328125 0.078125q0.15625 0.078125 0.265625 0.234375l0.953125 1.1875q-0.546875 0.640625 -1.234375 1.078125q-0.671875 0.4375 -1.40625 0.703125q-0.734375 0.25 -1.5 0.359375q-0.765625 0.109375 -1.484375 0.109375q-1.4375 0 -2.671875 -0.46875q-1.21875 -0.484375 -2.125 -1.40625q-0.90625 -0.921875 -1.421875 -2.28125q-0.515625 -1.375 -0.515625 -3.171875q0 -1.40625 0.453125 -2.640625q0.453125 -1.234375 1.296875 -2.140625q0.84375 -0.921875 2.0625 -1.453125q1.21875 -0.53125 2.75 -0.53125zm0.078125 2.359375q-1.453125 0 -2.265625 0.8125q-0.8125 0.8125 -1.03125 2.3125l6.1875 0q0 -0.640625 -0.1875 -1.203125q-0.171875 -0.578125 -0.53125 -1.0q-0.359375 -0.421875 -0.90625 -0.671875q-0.546875 -0.25 -1.265625 -0.25zm13.013367 11.75q-1.765625 0 -2.734375 -1.0q-0.953125 -1.015625 -0.953125 -2.796875l0 -7.625l-1.390625 0q-0.265625 0 -0.46875 -0.171875q-0.1875 -0.1875 -0.1875 -0.53125l0 -1.296875l2.203125 -0.359375l0.6875 -3.734375q0.0625 -0.265625 0.25 -0.40625q0.203125 -0.15625 0.484375 -0.15625l1.703125 0l0 4.3125l3.609375 0l0 2.34375l-3.609375 0l0 7.40625q0 0.640625 0.3125 1.0q0.328125 0.359375 0.875 0.359375q0.296875 0 0.5 -0.0625q0.21875 -0.078125 0.359375 -0.15625q0.15625 -0.09375 0.28125 -0.15625q0.125 -0.078125 0.234375 -0.078125q0.15625 0 0.25 0.078125q0.09375 0.0625 0.1875 0.21875l1.0 1.59375q-0.734375 0.59375 -1.671875 0.90625q-0.921875 0.3125 -1.921875 0.3125zm10.550293 -14.140625q0.890625 0 1.65625 0.1875q0.78125 0.1875 1.421875 0.53125l3.921875 0l0 1.21875q0 0.3125 -0.15625 0.484375q-0.15625 0.171875 -0.546875 0.234375l-1.21875 0.234375q0.125 0.34375 0.1875 0.734375q0.078125 0.375 0.078125 0.8125q0 1.0 -0.40625 1.828125q-0.40625 0.8125 -1.125 1.390625q-0.703125 0.578125 -1.6875 0.890625q-0.96875 0.3125 -2.125 0.3125q-0.765625 0 -1.5 -0.15625q-0.640625 0.390625 -0.640625 0.875q0 0.40625 0.375 0.609375q0.390625 0.1875 1.0 0.265625q0.625 0.078125 1.40625 0.109375q0.796875 0.015625 1.609375 0.078125q0.828125 0.0625 1.609375 0.234375q0.796875 0.171875 1.40625 0.53125q0.625 0.359375 1.0 0.984375q0.390625 0.609375 0.390625 1.578125q0 0.90625 -0.453125 1.765625q-0.4375 0.859375 -1.28125 1.515625q-0.84375 0.671875 -2.078125 1.078125q-1.21875 0.40625 -2.796875 0.40625q-1.5625 0 -2.71875 -0.296875q-1.140625 -0.296875 -1.890625 -0.796875q-0.75 -0.5 -1.125 -1.15625q-0.375 -0.65625 -0.375 -1.359375q0 -0.96875 0.578125 -1.609375q0.59375 -0.65625 1.640625 -1.046875q-0.515625 -0.28125 -0.828125 -0.75q-0.296875 -0.46875 -0.296875 -1.203125q0 -0.3125 0.109375 -0.640625q0.109375 -0.328125 0.328125 -0.640625q0.21875 -0.328125 0.546875 -0.609375q0.34375 -0.28125 0.796875 -0.515625q-1.046875 -0.5625 -1.640625 -1.484375q-0.59375 -0.9375 -0.59375 -2.1875q0 -1.015625 0.40625 -1.828125q0.40625 -0.828125 1.125 -1.40625q0.734375 -0.578125 1.71875 -0.890625q1.0 -0.3125 2.171875 -0.3125zm3.625 14.53125q0 -0.390625 -0.25 -0.640625q-0.234375 -0.265625 -0.65625 -0.40625q-0.40625 -0.140625 -0.96875 -0.203125q-0.546875 -0.0625 -1.171875 -0.09375q-0.609375 -0.03125 -1.28125 -0.0625q-0.65625 -0.046875 -1.265625 -0.125q-0.5625 0.3125 -0.90625 0.734375q-0.328125 0.421875 -0.328125 0.953125q0 0.375 0.171875 0.6875q0.1875 0.3125 0.578125 0.53125q0.390625 0.234375 1.015625 0.359375q0.625 0.125 1.53125 0.125q0.921875 0 1.59375 -0.140625q0.671875 -0.140625 1.09375 -0.390625q0.4375 -0.25 0.640625 -0.59375q0.203125 -0.328125 0.203125 -0.734375zm-3.625 -7.78125q0.625 0 1.078125 -0.15625q0.453125 -0.171875 0.75 -0.46875q0.296875 -0.296875 0.453125 -0.703125q0.15625 -0.421875 0.15625 -0.90625q0 -1.015625 -0.609375 -1.609375q-0.609375 -0.59375 -1.828125 -0.59375q-1.203125 0 -1.8125 0.59375q-0.609375 0.59375 -0.609375 1.609375q0 0.46875 0.15625 0.890625q0.15625 0.40625 0.453125 0.71875q0.296875 0.296875 0.75 0.46875q0.46875 0.15625 1.0625 0.15625zm14.716431 -6.71875q1.296875 0 2.375 0.421875q1.09375 0.40625 1.875 1.203125q0.796875 0.796875 1.234375 1.953125q0.4375 1.140625 0.4375 2.625q0 0.375 -0.03125 0.625q-0.03125 0.234375 -0.125 0.375q-0.078125 0.140625 -0.234375 0.203125q-0.140625 0.0625 -0.375 0.0625l-8.4375 0q0.140625 2.109375 1.125 3.09375q0.984375 0.984375 2.609375 0.984375q0.796875 0 1.375 -0.1875q0.59375 -0.1875 1.015625 -0.40625q0.4375 -0.234375 0.765625 -0.421875q0.328125 -0.1875 0.640625 -0.1875q0.1875 0 0.328125 0.078125q0.15625 0.078125 0.265625 0.234375l0.953125 1.1875q-0.546875 0.640625 -1.234375 1.078125q-0.671875 0.4375 -1.40625 0.703125q-0.734375 0.25 -1.5 0.359375q-0.765625 0.109375 -1.484375 0.109375q-1.4375 0 -2.671875 -0.46875q-1.21875 -0.484375 -2.125 -1.40625q-0.90625 -0.921875 -1.421875 -2.28125q-0.515625 -1.375 -0.515625 -3.171875q0 -1.40625 0.453125 -2.640625q0.453125 -1.234375 1.296875 -2.140625q0.84375 -0.921875 2.0625 -1.453125q1.21875 -0.53125 2.75 -0.53125zm0.078125 2.359375q-1.453125 0 -2.265625 0.8125q-0.8125 0.8125 -1.03125 2.3125l6.1875 0q0 -0.640625 -0.1875 -1.203125q-0.171875 -0.578125 -0.53125 -1.0q-0.359375 -0.421875 -0.90625 -0.671875q-0.546875 -0.25 -1.265625 -0.25zm8.528992 11.53125l0 -13.671875l2.0 0q0.640625 0 0.84375 0.59375l0.234375 1.078125q0.40625 -0.421875 0.859375 -0.765625q0.46875 -0.34375 0.984375 -0.59375q0.515625 -0.265625 1.09375 -0.390625q0.59375 -0.140625 1.28125 -0.140625q1.125 0 1.984375 0.390625q0.875 0.375 1.453125 1.0625q0.578125 0.6875 0.875 1.640625q0.296875 0.953125 0.296875 2.09375l0 8.703125l-3.296875 0l0 -8.703125q0 -1.25 -0.578125 -1.9375q-0.578125 -0.6875 -1.734375 -0.6875q-0.859375 0 -1.609375 0.390625q-0.734375 0.375 -1.40625 1.046875l0 9.890625l-3.28125 0z" fill-rule="nonzero"/><path fill="#1a9988" d="m661.21356 102.62588l7.71875 0l0 2.953125l-11.296875 0l0 -19.265625l3.578125 0l0 16.3125zm5.750183 -16.3125l2.90625 0q0.453125 0 0.75 0.234375q0.296875 0.21875 0.4375 0.578125l4.53125 11.75q0.234375 0.578125 0.4375 1.265625q0.203125 0.671875 0.390625 1.4375q0.3125 -1.53125 0.765625 -2.703125l4.515625 -11.75q0.125 -0.3125 0.421875 -0.5625q0.3125 -0.25 0.765625 -0.25l2.890625 0l-7.78125 19.265625l-3.234375 0l-7.796875 -19.265625zm31.160217 3.5q-0.15625 0.296875 -0.359375 0.421875q-0.1875 0.109375 -0.453125 0.109375q-0.265625 0 -0.59375 -0.203125q-0.328125 -0.203125 -0.78125 -0.453125q-0.453125 -0.265625 -1.0625 -0.46875q-0.609375 -0.203125 -1.4375 -0.203125q-0.75 0 -1.296875 0.1875q-0.546875 0.171875 -0.9375 0.5q-0.375 0.3125 -0.5625 0.765625q-0.1875 0.4375 -0.1875 0.96875q0 0.671875 0.375 1.125q0.390625 0.453125 1.015625 0.78125q0.625 0.3125 1.421875 0.578125q0.796875 0.25 1.625 0.546875q0.84375 0.28125 1.640625 0.65625q0.796875 0.375 1.421875 0.953125q0.625 0.578125 1.0 1.421875q0.390625 0.84375 0.390625 2.046875q0 1.296875 -0.453125 2.4375q-0.4375 1.140625 -1.296875 1.984375q-0.859375 0.84375 -2.109375 1.34375q-1.234375 0.484375 -2.828125 0.484375q-0.921875 0 -1.8125 -0.1875q-0.890625 -0.171875 -1.71875 -0.5q-0.8125 -0.34375 -1.53125 -0.8125q-0.703125 -0.46875 -1.265625 -1.03125l1.03125 -1.71875q0.15625 -0.1875 0.359375 -0.3125q0.203125 -0.140625 0.453125 -0.140625q0.34375 0 0.71875 0.28125q0.390625 0.265625 0.90625 0.609375q0.53125 0.328125 1.25 0.609375q0.71875 0.265625 1.71875 0.265625q1.53125 0 2.359375 -0.71875q0.84375 -0.734375 0.84375 -2.09375q0 -0.765625 -0.375 -1.234375q-0.375 -0.484375 -1.015625 -0.8125q-0.625 -0.328125 -1.421875 -0.546875q-0.796875 -0.234375 -1.625 -0.5q-0.828125 -0.265625 -1.625 -0.640625q-0.796875 -0.375 -1.421875 -0.96875q-0.625 -0.59375 -1.015625 -1.5q-0.375 -0.90625 -0.375 -2.21875q0 -1.046875 0.421875 -2.046875q0.421875 -1.0 1.21875 -1.765625q0.8125 -0.78125 1.984375 -1.25q1.171875 -0.46875 2.6875 -0.46875q1.703125 0 3.140625 0.53125q1.4375 0.53125 2.453125 1.5l-0.875 1.6875z" fill-rule="nonzero"/></g></svg>