<svg version="1.1" viewBox="0.0 0.0 273.84776902887137 274.62467191601047" fill="none" stroke="none" stroke-linecap="square" stroke-miterlimit="10" xmlns:xlink="http://www.w3.org/1999/xlink" xmlns="http://www.w3.org/2000/svg"><clipPath id="p.0"><path d="m0 0l273.84778 0l0 274.62466l-273.84778 0l0 -274.62466z" clip-rule="nonzero"/></clipPath><g clip-path="url(#p.0)"><path fill="#000000" fill-opacity="0.0" d="m0 0l273.84778 0l0 274.62466l-273.84778 0z" fill-rule="evenodd"/><path fill="#000000" fill-opacity="0.0" d="m53.86424 82.09498l0 0c0 -15.252335 12.36446 -27.616798 27.616802 -27.616798l111.254585 0l0 0c7.3244324 0 14.348877 2.9096184 19.52803 8.088772c5.1791534 5.1791573 8.088776 12.203594 8.088776 19.528027l0 110.467186c0 15.252335 -12.364471 27.616806 -27.616806 27.616806l-111.254585 0l0 0c-15.252342 0 -27.616802 -12.364471 -27.616802 -27.616806z" fill-rule="evenodd"/><path stroke="#000000" stroke-width="8.0" stroke-linejoin="round" stroke-linecap="butt" d="m53.86424 82.09498l0 0c0 -15.252335 12.36446 -27.616798 27.616802 -27.616798l111.254585 0l0 0c7.3244324 0 14.348877 2.9096184 19.52803 8.088772c5.1791534 5.1791573 8.088776 12.203594 8.088776 19.528027l0 110.467186c0 15.252335 -12.364471 27.616806 -27.616806 27.616806l-111.254585 0l0 0c-15.252342 0 -27.616802 -12.364471 -27.616802 -27.616806z" fill-rule="evenodd"/><path fill="#000000" fill-opacity="0.0" d="m5.1083345 185.41782l32.0 0" fill-rule="evenodd"/><path stroke="#000000" stroke-width="8.0" stroke-linejoin="round" stroke-linecap="butt" d="m5.1083345 185.41782l32.0 0" fill-rule="evenodd"/><path fill="#000000" fill-opacity="0.0" d="m5.1083345 164.61781l32.0 0" fill-rule="evenodd"/><path stroke="#000000" stroke-width="8.0" stroke-linejoin="round" stroke-linecap="butt" d="m5.1083345 164.61781l32.0 0" fill-rule="evenodd"/><path fill="#000000" fill-opacity="0.0" d="m5.1083345 143.81781l32.0 0" fill-rule="evenodd"/><path stroke="#000000" stroke-width="8.0" stroke-linejoin="round" stroke-linecap="butt" d="m5.1083345 143.81781l32.0 0" fill-rule="evenodd"/><path fill="#000000" fill-opacity="0.0" d="m5.1083345 123.017815l32.0 0" fill-rule="evenodd"/><path stroke="#000000" stroke-width="8.0" stroke-linejoin="round" stroke-linecap="butt" d="m5.1083345 123.017815l32.0 0" fill-rule="evenodd"/><path fill="#000000" fill-opacity="0.0" d="m5.1083345 102.21781l32.0 0" fill-rule="evenodd"/><path stroke="#000000" stroke-width="8.0" stroke-linejoin="round" stroke-linecap="butt" d="m5.1083345 102.21781l32.0 0" fill-rule="evenodd"/><path fill="#000000" fill-opacity="0.0" d="m5.1083345 81.41781l32.0 0" fill-rule="evenodd"/><path stroke="#000000" stroke-width="8.0" stroke-linejoin="round" stroke-linecap="butt" d="m5.1083345 81.41781l32.0 0" fill-rule="evenodd"/><path fill="#000000" fill-opacity="0.0" d="m85.10834 237.32857l0 32.000015" fill-rule="evenodd"/><path stroke="#000000" stroke-width="8.0" stroke-linejoin="round" stroke-linecap="butt" d="m85.10834 237.32857l0 32.000015" fill-rule="evenodd"/><path fill="#000000" fill-opacity="0.0" d="m105.90833 237.32857l0 32.000015" fill-rule="evenodd"/><path stroke="#000000" stroke-width="8.0" stroke-linejoin="round" stroke-linecap="butt" d="m105.90833 237.32857l0 32.000015" fill-rule="evenodd"/><path fill="#000000" fill-opacity="0.0" d="m126.708336 237.32857l0 32.000015" fill-rule="evenodd"/><path stroke="#000000" stroke-width="8.0" stroke-linejoin="round" stroke-linecap="butt" d="m126.708336 237.32857l0 32.000015" fill-rule="evenodd"/><path fill="#000000" fill-opacity="0.0" d="m147.50833 237.32857l0 32.000015" fill-rule="evenodd"/><path stroke="#000000" stroke-width="8.0" stroke-linejoin="round" stroke-linecap="butt" d="m147.50833 237.32857l0 32.000015" fill-rule="evenodd"/><path fill="#000000" fill-opacity="0.0" d="m168.30833 237.32857l0 32.000015" fill-rule="evenodd"/><path stroke="#000000" stroke-width="8.0" stroke-linejoin="round" stroke-linecap="butt" d="m168.30833 237.32857l0 32.000015" fill-rule="evenodd"/><path fill="#000000" fill-opacity="0.0" d="m189.10834 237.32857l0 32.000015" fill-rule="evenodd"/><path stroke="#000000" stroke-width="8.0" stroke-linejoin="round" stroke-linecap="butt" d="m189.10834 237.32857l0 32.000015" fill-rule="evenodd"/><path fill="#000000" fill-opacity="0.0" d="m85.10834 5.328573l0 32.0" fill-rule="evenodd"/><path stroke="#000000" stroke-width="8.0" stroke-linejoin="round" stroke-linecap="butt" d="m85.10834 5.328573l0 32.0" fill-rule="evenodd"/><path fill="#000000" fill-opacity="0.0" d="m105.90833 5.328573l0 32.0" fill-rule="evenodd"/><path stroke="#000000" stroke-width="8.0" stroke-linejoin="round" stroke-linecap="butt" d="m105.90833 5.328573l0 32.0" fill-rule="evenodd"/><path fill="#000000" fill-opacity="0.0" d="m126.708336 5.328573l0 32.0" fill-rule="evenodd"/><path stroke="#000000" stroke-width="8.0" stroke-linejoin="round" stroke-linecap="butt" d="m126.708336 5.328573l0 32.0" fill-rule="evenodd"/><path fill="#000000" fill-opacity="0.0" d="m147.50833 5.328573l0 32.0" fill-rule="evenodd"/><path stroke="#000000" stroke-width="8.0" stroke-linejoin="round" stroke-linecap="butt" d="m147.50833 5.328573l0 32.0" fill-rule="evenodd"/><path fill="#000000" fill-opacity="0.0" d="m168.30833 5.328573l0 32.0" fill-rule="evenodd"/><path stroke="#000000" stroke-width="8.0" stroke-linejoin="round" stroke-linecap="butt" d="m168.30833 5.328573l0 32.0" fill-rule="evenodd"/><path fill="#000000" fill-opacity="0.0" d="m189.10834 5.328573l0 32.0" fill-rule="evenodd"/><path stroke="#000000" stroke-width="8.0" stroke-linejoin="round" stroke-linecap="butt" d="m189.10834 5.328573l0 32.0" fill-rule="evenodd"/><path fill="#000000" fill-opacity="0.0" d="m237.10834 185.41782l32.0 0" fill-rule="evenodd"/><path stroke="#000000" stroke-width="8.0" stroke-linejoin="round" stroke-linecap="butt" d="m237.10834 185.41782l32.0 0" fill-rule="evenodd"/><path fill="#000000" fill-opacity="0.0" d="m237.10834 164.61781l32.0 0" fill-rule="evenodd"/><path stroke="#000000" stroke-width="8.0" stroke-linejoin="round" stroke-linecap="butt" d="m237.10834 164.61781l32.0 0" fill-rule="evenodd"/><path fill="#000000" fill-opacity="0.0" d="m237.10834 143.81781l32.0 0" fill-rule="evenodd"/><path stroke="#000000" stroke-width="8.0" stroke-linejoin="round" stroke-linecap="butt" d="m237.10834 143.81781l32.0 0" fill-rule="evenodd"/><path fill="#000000" fill-opacity="0.0" d="m237.10834 123.017815l32.0 0" fill-rule="evenodd"/><path stroke="#000000" stroke-width="8.0" stroke-linejoin="round" stroke-linecap="butt" d="m237.10834 123.017815l32.0 0" fill-rule="evenodd"/><path fill="#000000" fill-opacity="0.0" d="m237.10834 102.21781l32.0 0" fill-rule="evenodd"/><path stroke="#000000" stroke-width="8.0" stroke-linejoin="round" stroke-linecap="butt" d="m237.10834 102.21781l32.0 0" fill-rule="evenodd"/><path fill="#000000" fill-opacity="0.0" d="m237.10834 81.41781l32.0 0" fill-rule="evenodd"/><path stroke="#000000" stroke-width="8.0" stroke-linejoin="round" stroke-linecap="butt" d="m237.10834 81.41781l32.0 0" fill-rule="evenodd"/></g></svg>